<mxfile host="app.diagrams.net" agent="Mozilla/5.0 (Windows NT 10.0; Win64; x64) AppleWebKit/537.36 (KHTML, like Gecko) Chrome/139.0.0.0 Safari/537.36" version="28.1.0">
  <diagram name="Page-1" id="3JU8Kdi7YVTrkMsnLHV1">
    <mxGraphModel dx="7040" dy="4259" grid="1" gridSize="10" guides="1" tooltips="1" connect="1" arrows="1" fold="1" page="1" pageScale="1" pageWidth="3300" pageHeight="2339" math="0" shadow="0">
      <root>
        <mxCell id="0" />
        <mxCell id="1" parent="0" />
        <mxCell id="i0FzcZnS4csEfGver0WR-19" style="edgeStyle=orthogonalEdgeStyle;rounded=1;orthogonalLoop=1;jettySize=auto;html=1;entryX=1;entryY=0.5;entryDx=0;entryDy=0;fillColor=#a20025;strokeColor=#6F0000;" parent="1" source="i0FzcZnS4csEfGver0WR-1" target="i0FzcZnS4csEfGver0WR-13" edge="1">
          <mxGeometry relative="1" as="geometry" />
        </mxCell>
        <mxCell id="i0FzcZnS4csEfGver0WR-33" style="edgeStyle=orthogonalEdgeStyle;rounded=1;orthogonalLoop=1;jettySize=auto;html=1;entryX=0.5;entryY=1;entryDx=0;entryDy=0;fillColor=#a20025;strokeColor=#6F0000;" parent="1" source="i0FzcZnS4csEfGver0WR-1" target="i0FzcZnS4csEfGver0WR-24" edge="1">
          <mxGeometry relative="1" as="geometry" />
        </mxCell>
        <mxCell id="i0FzcZnS4csEfGver0WR-34" style="edgeStyle=orthogonalEdgeStyle;rounded=1;orthogonalLoop=1;jettySize=auto;html=1;exitX=0.25;exitY=0;exitDx=0;exitDy=0;entryX=0.5;entryY=1;entryDx=0;entryDy=0;fillColor=#a20025;strokeColor=#6F0000;" parent="1" source="i0FzcZnS4csEfGver0WR-1" target="i0FzcZnS4csEfGver0WR-21" edge="1">
          <mxGeometry relative="1" as="geometry" />
        </mxCell>
        <mxCell id="i0FzcZnS4csEfGver0WR-35" style="edgeStyle=orthogonalEdgeStyle;rounded=1;orthogonalLoop=1;jettySize=auto;html=1;exitX=0.75;exitY=0;exitDx=0;exitDy=0;entryX=0.5;entryY=1;entryDx=0;entryDy=0;fillColor=#a20025;strokeColor=#6F0000;" parent="1" source="i0FzcZnS4csEfGver0WR-1" target="i0FzcZnS4csEfGver0WR-26" edge="1">
          <mxGeometry relative="1" as="geometry" />
        </mxCell>
        <mxCell id="i0FzcZnS4csEfGver0WR-39" style="edgeStyle=orthogonalEdgeStyle;rounded=1;orthogonalLoop=1;jettySize=auto;html=1;exitX=1;exitY=0.25;exitDx=0;exitDy=0;entryX=0;entryY=0.5;entryDx=0;entryDy=0;fillColor=#a20025;strokeColor=#6F0000;" parent="1" source="i0FzcZnS4csEfGver0WR-1" target="i0FzcZnS4csEfGver0WR-36" edge="1">
          <mxGeometry relative="1" as="geometry">
            <Array as="points">
              <mxPoint x="-2411" y="-1819" />
              <mxPoint x="-2411" y="-1884" />
            </Array>
          </mxGeometry>
        </mxCell>
        <mxCell id="i0FzcZnS4csEfGver0WR-40" style="edgeStyle=orthogonalEdgeStyle;rounded=1;orthogonalLoop=1;jettySize=auto;html=1;exitX=0;exitY=0.25;exitDx=0;exitDy=0;entryX=1;entryY=0.5;entryDx=0;entryDy=0;fillColor=#a20025;strokeColor=#6F0000;" parent="1" source="i0FzcZnS4csEfGver0WR-1" target="i0FzcZnS4csEfGver0WR-14" edge="1">
          <mxGeometry relative="1" as="geometry">
            <Array as="points">
              <mxPoint x="-2651" y="-1819" />
              <mxPoint x="-2651" y="-1884" />
            </Array>
          </mxGeometry>
        </mxCell>
        <mxCell id="i0FzcZnS4csEfGver0WR-1" value="Person" style="rounded=1;whiteSpace=wrap;html=1;fillColor=#e1d5e7;strokeColor=#9673a6;fontFamily=Comic Sans MS;fontSize=15;" parent="1" vertex="1">
          <mxGeometry x="-2591" y="-1834" width="120" height="60" as="geometry" />
        </mxCell>
        <mxCell id="i0FzcZnS4csEfGver0WR-12" style="edgeStyle=orthogonalEdgeStyle;rounded=1;orthogonalLoop=1;jettySize=auto;html=1;entryX=0.5;entryY=1;entryDx=0;entryDy=0;fillColor=#a20025;strokeColor=#6F0000;endArrow=ERmandOne;endFill=0;strokeWidth=2;" parent="1" source="i0FzcZnS4csEfGver0WR-2" target="i0FzcZnS4csEfGver0WR-1" edge="1">
          <mxGeometry relative="1" as="geometry" />
        </mxCell>
        <mxCell id="i0FzcZnS4csEfGver0WR-2" value="" style="triangle;whiteSpace=wrap;html=1;rounded=1;rotation=-90;fillColor=#008a00;strokeColor=#005700;fontColor=#ffffff;fontSize=14;" parent="1" vertex="1">
          <mxGeometry x="-2561" y="-1694" width="60" height="80" as="geometry" />
        </mxCell>
        <mxCell id="i0FzcZnS4csEfGver0WR-9" style="edgeStyle=orthogonalEdgeStyle;rounded=1;orthogonalLoop=1;jettySize=auto;html=1;entryX=0.5;entryY=0;entryDx=0;entryDy=0;fillColor=#a20025;strokeColor=#6F0000;endArrow=ERzeroToOne;endFill=0;strokeWidth=2;" parent="1" source="i0FzcZnS4csEfGver0WR-3" target="i0FzcZnS4csEfGver0WR-4" edge="1">
          <mxGeometry relative="1" as="geometry" />
        </mxCell>
        <mxCell id="i0FzcZnS4csEfGver0WR-10" style="edgeStyle=orthogonalEdgeStyle;rounded=1;orthogonalLoop=1;jettySize=auto;html=1;entryX=0.5;entryY=0;entryDx=0;entryDy=0;fillColor=#a20025;strokeColor=#6F0000;endArrow=ERzeroToOne;endFill=0;strokeWidth=2;" parent="1" source="i0FzcZnS4csEfGver0WR-3" target="i0FzcZnS4csEfGver0WR-5" edge="1">
          <mxGeometry relative="1" as="geometry" />
        </mxCell>
        <mxCell id="i0FzcZnS4csEfGver0WR-3" value="&lt;font style=&quot;font-size: 15px; color: rgb(255, 255, 255);&quot; face=&quot;Comic Sans MS&quot;&gt;IS&lt;/font&gt;" style="text;html=1;align=center;verticalAlign=middle;whiteSpace=wrap;rounded=1;" parent="1" vertex="1">
          <mxGeometry x="-2561" y="-1659" width="60" height="30" as="geometry" />
        </mxCell>
        <mxCell id="i0FzcZnS4csEfGver0WR-42" style="edgeStyle=orthogonalEdgeStyle;rounded=1;orthogonalLoop=1;jettySize=auto;html=1;entryX=1;entryY=0.5;entryDx=0;entryDy=0;fillColor=#a20025;strokeColor=#6F0000;" parent="1" source="i0FzcZnS4csEfGver0WR-4" target="i0FzcZnS4csEfGver0WR-41" edge="1">
          <mxGeometry relative="1" as="geometry" />
        </mxCell>
        <mxCell id="i0FzcZnS4csEfGver0WR-4" value="Patient" style="rounded=1;whiteSpace=wrap;html=1;fillColor=#e1d5e7;strokeColor=#9673a6;fontFamily=Comic Sans MS;fontSize=15;" parent="1" vertex="1">
          <mxGeometry x="-2761" y="-1524" width="120" height="60" as="geometry" />
        </mxCell>
        <mxCell id="i0FzcZnS4csEfGver0WR-44" style="edgeStyle=orthogonalEdgeStyle;rounded=1;orthogonalLoop=1;jettySize=auto;html=1;exitX=1;exitY=0.5;exitDx=0;exitDy=0;entryX=0;entryY=0.5;entryDx=0;entryDy=0;fillColor=#a20025;strokeColor=#6F0000;" parent="1" source="i0FzcZnS4csEfGver0WR-5" target="i0FzcZnS4csEfGver0WR-43" edge="1">
          <mxGeometry relative="1" as="geometry" />
        </mxCell>
        <mxCell id="i0FzcZnS4csEfGver0WR-5" value="Doctor" style="rounded=1;whiteSpace=wrap;html=1;fillColor=#e1d5e7;strokeColor=#9673a6;fontFamily=Comic Sans MS;fontSize=15;" parent="1" vertex="1">
          <mxGeometry x="-2431" y="-1524" width="120" height="60" as="geometry" />
        </mxCell>
        <mxCell id="i0FzcZnS4csEfGver0WR-13" value="&lt;u&gt;ID&lt;/u&gt;" style="ellipse;whiteSpace=wrap;html=1;rounded=1;fillColor=#fff2cc;strokeColor=#d6b656;fontSize=15;fontFamily=Comic Sans MS;" parent="1" vertex="1">
          <mxGeometry x="-2781" y="-1839" width="100" height="70" as="geometry" />
        </mxCell>
        <mxCell id="i0FzcZnS4csEfGver0WR-17" style="edgeStyle=orthogonalEdgeStyle;rounded=1;orthogonalLoop=1;jettySize=auto;html=1;entryX=0.5;entryY=1;entryDx=0;entryDy=0;fillColor=#a20025;strokeColor=#6F0000;" parent="1" source="i0FzcZnS4csEfGver0WR-14" target="i0FzcZnS4csEfGver0WR-15" edge="1">
          <mxGeometry relative="1" as="geometry" />
        </mxCell>
        <mxCell id="i0FzcZnS4csEfGver0WR-18" style="edgeStyle=orthogonalEdgeStyle;rounded=1;orthogonalLoop=1;jettySize=auto;html=1;entryX=0.5;entryY=0;entryDx=0;entryDy=0;fillColor=#a20025;strokeColor=#6F0000;" parent="1" source="i0FzcZnS4csEfGver0WR-14" target="i0FzcZnS4csEfGver0WR-16" edge="1">
          <mxGeometry relative="1" as="geometry" />
        </mxCell>
        <mxCell id="i0FzcZnS4csEfGver0WR-14" value="(FullName)" style="ellipse;whiteSpace=wrap;html=1;rounded=1;fillColor=#fff2cc;strokeColor=#d6b656;fontSize=15;fontFamily=Comic Sans MS;" parent="1" vertex="1">
          <mxGeometry x="-2791" y="-1919" width="100" height="70" as="geometry" />
        </mxCell>
        <mxCell id="i0FzcZnS4csEfGver0WR-15" value="FirstName" style="ellipse;whiteSpace=wrap;html=1;rounded=1;fillColor=#fff2cc;strokeColor=#d6b656;fontSize=15;fontFamily=Comic Sans MS;" parent="1" vertex="1">
          <mxGeometry x="-2901" y="-1979" width="100" height="70" as="geometry" />
        </mxCell>
        <mxCell id="i0FzcZnS4csEfGver0WR-16" value="LastName" style="ellipse;whiteSpace=wrap;html=1;rounded=1;fillColor=#fff2cc;strokeColor=#d6b656;fontSize=15;fontFamily=Comic Sans MS;" parent="1" vertex="1">
          <mxGeometry x="-2901" y="-1859" width="100" height="70" as="geometry" />
        </mxCell>
        <mxCell id="i0FzcZnS4csEfGver0WR-21" value="DateOfBirth" style="ellipse;whiteSpace=wrap;html=1;rounded=1;fillColor=#fff2cc;strokeColor=#d6b656;fontSize=15;fontFamily=Comic Sans MS;" parent="1" vertex="1">
          <mxGeometry x="-2691" y="-1979" width="100" height="70" as="geometry" />
        </mxCell>
        <mxCell id="i0FzcZnS4csEfGver0WR-24" value="Gender" style="ellipse;whiteSpace=wrap;html=1;rounded=1;fillColor=#fff2cc;strokeColor=#d6b656;fontSize=15;fontFamily=Comic Sans MS;" parent="1" vertex="1">
          <mxGeometry x="-2581" y="-1979" width="100" height="70" as="geometry" />
        </mxCell>
        <mxCell id="i0FzcZnS4csEfGver0WR-26" value="Email" style="ellipse;whiteSpace=wrap;html=1;rounded=1;fillColor=#fff2cc;strokeColor=#d6b656;fontSize=15;fontFamily=Comic Sans MS;" parent="1" vertex="1">
          <mxGeometry x="-2471" y="-1979" width="100" height="70" as="geometry" />
        </mxCell>
        <mxCell id="i0FzcZnS4csEfGver0WR-29" value="" style="ellipse;whiteSpace=wrap;html=1;rounded=1;fillColor=#fff2cc;strokeColor=#d6b656;fontSize=15;fontFamily=Comic Sans MS;" parent="1" vertex="1">
          <mxGeometry x="-2381" y="-1844" width="100" height="70" as="geometry" />
        </mxCell>
        <mxCell id="i0FzcZnS4csEfGver0WR-30" value="Phone" style="ellipse;whiteSpace=wrap;html=1;rounded=1;fillColor=#fff2cc;strokeColor=#d6b656;fontSize=15;fontFamily=Comic Sans MS;" parent="1" vertex="1">
          <mxGeometry x="-2376.98" y="-1841.19" width="91.97" height="64.38" as="geometry" />
        </mxCell>
        <mxCell id="i0FzcZnS4csEfGver0WR-32" style="edgeStyle=orthogonalEdgeStyle;rounded=1;orthogonalLoop=1;jettySize=auto;html=1;entryX=0;entryY=0.571;entryDx=0;entryDy=0;entryPerimeter=0;fillColor=#a20025;strokeColor=#6F0000;" parent="1" source="i0FzcZnS4csEfGver0WR-1" target="i0FzcZnS4csEfGver0WR-29" edge="1">
          <mxGeometry relative="1" as="geometry" />
        </mxCell>
        <mxCell id="i0FzcZnS4csEfGver0WR-36" value="Address" style="ellipse;whiteSpace=wrap;html=1;rounded=1;fillColor=#fff2cc;strokeColor=#d6b656;fontSize=15;fontFamily=Comic Sans MS;" parent="1" vertex="1">
          <mxGeometry x="-2385.01" y="-1919" width="100" height="70" as="geometry" />
        </mxCell>
        <mxCell id="i0FzcZnS4csEfGver0WR-41" value="&lt;u&gt;Patient&lt;/u&gt;&lt;u style=&quot;background-color: transparent; color: light-dark(rgb(0, 0, 0), rgb(255, 255, 255));&quot;&gt;ID&lt;/u&gt;" style="ellipse;whiteSpace=wrap;html=1;rounded=1;fillColor=#fff2cc;strokeColor=#d6b656;fontSize=15;fontFamily=Comic Sans MS;" parent="1" vertex="1">
          <mxGeometry x="-2921" y="-1529" width="100" height="70" as="geometry" />
        </mxCell>
        <mxCell id="i0FzcZnS4csEfGver0WR-43" value="&lt;u&gt;DoctorID&lt;/u&gt;" style="ellipse;whiteSpace=wrap;html=1;rounded=1;fillColor=#fff2cc;strokeColor=#d6b656;fontSize=15;fontFamily=Comic Sans MS;" parent="1" vertex="1">
          <mxGeometry x="-2251" y="-1529" width="100" height="70" as="geometry" />
        </mxCell>
        <mxCell id="i0FzcZnS4csEfGver0WR-66" style="edgeStyle=orthogonalEdgeStyle;rounded=1;orthogonalLoop=1;jettySize=auto;html=1;exitX=0.25;exitY=0;exitDx=0;exitDy=0;fillColor=#a20025;strokeColor=#6F0000;" parent="1" source="i0FzcZnS4csEfGver0WR-45" target="i0FzcZnS4csEfGver0WR-60" edge="1">
          <mxGeometry relative="1" as="geometry" />
        </mxCell>
        <mxCell id="i0FzcZnS4csEfGver0WR-67" style="edgeStyle=orthogonalEdgeStyle;rounded=1;orthogonalLoop=1;jettySize=auto;html=1;exitX=0.75;exitY=0;exitDx=0;exitDy=0;entryX=0.5;entryY=1;entryDx=0;entryDy=0;fillColor=#a20025;strokeColor=#6F0000;" parent="1" source="i0FzcZnS4csEfGver0WR-45" target="i0FzcZnS4csEfGver0WR-62" edge="1">
          <mxGeometry relative="1" as="geometry" />
        </mxCell>
        <mxCell id="i0FzcZnS4csEfGver0WR-69" style="edgeStyle=orthogonalEdgeStyle;rounded=1;orthogonalLoop=1;jettySize=auto;html=1;exitX=0.25;exitY=1;exitDx=0;exitDy=0;entryX=1;entryY=0.5;entryDx=0;entryDy=0;fillColor=#a20025;strokeColor=#6F0000;" parent="1" source="i0FzcZnS4csEfGver0WR-45" target="i0FzcZnS4csEfGver0WR-68" edge="1">
          <mxGeometry relative="1" as="geometry" />
        </mxCell>
        <mxCell id="i0FzcZnS4csEfGver0WR-45" value="Appointment" style="rounded=1;whiteSpace=wrap;html=1;fillColor=#e1d5e7;strokeColor=#9673a6;fontFamily=Comic Sans MS;fontSize=15;" parent="1" vertex="1">
          <mxGeometry x="-2591" y="-1269" width="120" height="60" as="geometry" />
        </mxCell>
        <mxCell id="i0FzcZnS4csEfGver0WR-51" style="edgeStyle=orthogonalEdgeStyle;rounded=1;orthogonalLoop=1;jettySize=auto;html=1;entryX=0.5;entryY=1;entryDx=0;entryDy=0;strokeWidth=2;fillColor=#a20025;strokeColor=#6F0000;endArrow=ERmandOne;endFill=0;" parent="1" source="i0FzcZnS4csEfGver0WR-47" target="i0FzcZnS4csEfGver0WR-4" edge="1">
          <mxGeometry relative="1" as="geometry" />
        </mxCell>
        <mxCell id="i0FzcZnS4csEfGver0WR-58" style="edgeStyle=orthogonalEdgeStyle;rounded=1;orthogonalLoop=1;jettySize=auto;html=1;entryX=0;entryY=0.5;entryDx=0;entryDy=0;exitX=0.5;exitY=1;exitDx=0;exitDy=0;strokeWidth=2;fillColor=#a20025;strokeColor=#6F0000;endArrow=ERzeroToMany;endFill=0;" parent="1" source="i0FzcZnS4csEfGver0WR-47" target="i0FzcZnS4csEfGver0WR-45" edge="1">
          <mxGeometry relative="1" as="geometry" />
        </mxCell>
        <mxCell id="i0FzcZnS4csEfGver0WR-47" value="Booking" style="rhombus;whiteSpace=wrap;html=1;fontSize=15;fontFamily=Comic Sans MS;fillColor=#6a00ff;strokeColor=#3700CC;rounded=1;fontColor=#ffffff;" parent="1" vertex="1">
          <mxGeometry x="-2741" y="-1409" width="80" height="80" as="geometry" />
        </mxCell>
        <mxCell id="i0FzcZnS4csEfGver0WR-57" style="edgeStyle=orthogonalEdgeStyle;rounded=1;orthogonalLoop=1;jettySize=auto;html=1;entryX=0.5;entryY=1;entryDx=0;entryDy=0;strokeWidth=2;fillColor=#a20025;strokeColor=#6F0000;endArrow=ERmandOne;endFill=0;" parent="1" source="i0FzcZnS4csEfGver0WR-53" target="i0FzcZnS4csEfGver0WR-5" edge="1">
          <mxGeometry relative="1" as="geometry" />
        </mxCell>
        <mxCell id="i0FzcZnS4csEfGver0WR-59" style="edgeStyle=orthogonalEdgeStyle;rounded=1;orthogonalLoop=1;jettySize=auto;html=1;entryX=1;entryY=0.5;entryDx=0;entryDy=0;exitX=0.5;exitY=1;exitDx=0;exitDy=0;strokeWidth=2;fillColor=#a20025;strokeColor=#6F0000;endArrow=ERzeroToMany;endFill=0;" parent="1" source="i0FzcZnS4csEfGver0WR-53" target="i0FzcZnS4csEfGver0WR-45" edge="1">
          <mxGeometry relative="1" as="geometry" />
        </mxCell>
        <mxCell id="i0FzcZnS4csEfGver0WR-53" value="Receive" style="rhombus;whiteSpace=wrap;html=1;fontSize=15;fontFamily=Comic Sans MS;fillColor=#6a00ff;strokeColor=#3700CC;rounded=1;fontColor=#ffffff;" parent="1" vertex="1">
          <mxGeometry x="-2411" y="-1409" width="80" height="80" as="geometry" />
        </mxCell>
        <mxCell id="i0FzcZnS4csEfGver0WR-60" value="&lt;u&gt;&lt;font style=&quot;font-size: 12px;&quot;&gt;AppointmentID&lt;/font&gt;&lt;/u&gt;" style="ellipse;whiteSpace=wrap;html=1;rounded=1;fillColor=#fff2cc;strokeColor=#d6b656;fontSize=15;fontFamily=Comic Sans MS;" parent="1" vertex="1">
          <mxGeometry x="-2651" y="-1379" width="100" height="70" as="geometry" />
        </mxCell>
        <mxCell id="i0FzcZnS4csEfGver0WR-62" value="&lt;font&gt;DateTime&lt;/font&gt;" style="ellipse;whiteSpace=wrap;html=1;rounded=1;fillColor=#fff2cc;strokeColor=#d6b656;fontSize=15;fontFamily=Comic Sans MS;" parent="1" vertex="1">
          <mxGeometry x="-2511" y="-1379" width="100" height="70" as="geometry" />
        </mxCell>
        <mxCell id="i0FzcZnS4csEfGver0WR-68" value="&lt;font&gt;Status&lt;/font&gt;" style="ellipse;whiteSpace=wrap;html=1;rounded=1;fillColor=#fff2cc;strokeColor=#d6b656;fontSize=15;fontFamily=Comic Sans MS;" parent="1" vertex="1">
          <mxGeometry x="-2711" y="-1199" width="100" height="70" as="geometry" />
        </mxCell>
        <mxCell id="i0FzcZnS4csEfGver0WR-83" style="edgeStyle=orthogonalEdgeStyle;rounded=1;orthogonalLoop=1;jettySize=auto;html=1;exitX=0;exitY=0.75;exitDx=0;exitDy=0;entryX=0.5;entryY=0;entryDx=0;entryDy=0;fillColor=#a20025;strokeColor=#6F0000;" parent="1" source="i0FzcZnS4csEfGver0WR-70" target="i0FzcZnS4csEfGver0WR-77" edge="1">
          <mxGeometry relative="1" as="geometry" />
        </mxCell>
        <mxCell id="i0FzcZnS4csEfGver0WR-84" style="edgeStyle=orthogonalEdgeStyle;rounded=1;orthogonalLoop=1;jettySize=auto;html=1;exitX=1;exitY=0.75;exitDx=0;exitDy=0;entryX=0.5;entryY=0;entryDx=0;entryDy=0;fillColor=#a20025;strokeColor=#6F0000;" parent="1" source="i0FzcZnS4csEfGver0WR-70" target="i0FzcZnS4csEfGver0WR-79" edge="1">
          <mxGeometry relative="1" as="geometry" />
        </mxCell>
        <mxCell id="i0FzcZnS4csEfGver0WR-86" style="edgeStyle=orthogonalEdgeStyle;rounded=1;orthogonalLoop=1;jettySize=auto;html=1;exitX=0.25;exitY=1;exitDx=0;exitDy=0;entryX=1;entryY=0.5;entryDx=0;entryDy=0;fillColor=#a20025;strokeColor=#6F0000;" parent="1" source="i0FzcZnS4csEfGver0WR-70" target="i0FzcZnS4csEfGver0WR-80" edge="1">
          <mxGeometry relative="1" as="geometry" />
        </mxCell>
        <mxCell id="i0FzcZnS4csEfGver0WR-87" style="edgeStyle=orthogonalEdgeStyle;rounded=1;orthogonalLoop=1;jettySize=auto;html=1;entryX=0.5;entryY=0;entryDx=0;entryDy=0;fillColor=#a20025;strokeColor=#6F0000;" parent="1" source="i0FzcZnS4csEfGver0WR-70" target="i0FzcZnS4csEfGver0WR-81" edge="1">
          <mxGeometry relative="1" as="geometry">
            <Array as="points">
              <mxPoint x="-2731" y="-879" />
              <mxPoint x="-2731" y="-779" />
            </Array>
          </mxGeometry>
        </mxCell>
        <mxCell id="i0FzcZnS4csEfGver0WR-70" value="Medical Record" style="rounded=1;whiteSpace=wrap;html=1;fillColor=#e1d5e7;strokeColor=#9673a6;fontFamily=Comic Sans MS;fontSize=15;" parent="1" vertex="1">
          <mxGeometry x="-2591" y="-919" width="120" height="60" as="geometry" />
        </mxCell>
        <mxCell id="i0FzcZnS4csEfGver0WR-73" style="edgeStyle=orthogonalEdgeStyle;rounded=1;orthogonalLoop=1;jettySize=auto;html=1;entryX=0.5;entryY=0;entryDx=0;entryDy=0;strokeWidth=2;fillColor=#a20025;strokeColor=#6F0000;endArrow=ERmandOne;endFill=0;" parent="1" source="i0FzcZnS4csEfGver0WR-71" target="i0FzcZnS4csEfGver0WR-70" edge="1">
          <mxGeometry relative="1" as="geometry" />
        </mxCell>
        <mxCell id="i0FzcZnS4csEfGver0WR-74" style="edgeStyle=orthogonalEdgeStyle;rounded=1;orthogonalLoop=1;jettySize=auto;html=1;entryX=0.5;entryY=1;entryDx=0;entryDy=0;strokeWidth=2;fillColor=#a20025;strokeColor=#6F0000;endArrow=ERmandOne;endFill=0;" parent="1" source="i0FzcZnS4csEfGver0WR-71" target="i0FzcZnS4csEfGver0WR-45" edge="1">
          <mxGeometry relative="1" as="geometry" />
        </mxCell>
        <mxCell id="i0FzcZnS4csEfGver0WR-71" value="has" style="rhombus;whiteSpace=wrap;html=1;fontSize=15;fontFamily=Comic Sans MS;fillColor=#6a00ff;strokeColor=#3700CC;rounded=1;fontColor=#ffffff;" parent="1" vertex="1">
          <mxGeometry x="-2571" y="-1109" width="80" height="80" as="geometry" />
        </mxCell>
        <mxCell id="i0FzcZnS4csEfGver0WR-77" value="&lt;u&gt;&lt;font&gt;MRID&lt;/font&gt;&lt;/u&gt;" style="ellipse;whiteSpace=wrap;html=1;rounded=1;fillColor=#fff2cc;strokeColor=#d6b656;fontSize=15;fontFamily=Comic Sans MS;" parent="1" vertex="1">
          <mxGeometry x="-2691" y="-829" width="100" height="70" as="geometry" />
        </mxCell>
        <mxCell id="i0FzcZnS4csEfGver0WR-79" value="Description" style="ellipse;whiteSpace=wrap;html=1;rounded=1;fillColor=#fff2cc;strokeColor=#d6b656;fontSize=15;fontFamily=Comic Sans MS;" parent="1" vertex="1">
          <mxGeometry x="-2476.98" y="-829" width="100" height="70" as="geometry" />
        </mxCell>
        <mxCell id="i0FzcZnS4csEfGver0WR-80" value="Diagnosis" style="ellipse;whiteSpace=wrap;html=1;rounded=1;fillColor=#fff2cc;strokeColor=#d6b656;fontSize=15;fontFamily=Comic Sans MS;" parent="1" vertex="1">
          <mxGeometry x="-2691" y="-739" width="100" height="70" as="geometry" />
        </mxCell>
        <mxCell id="i0FzcZnS4csEfGver0WR-81" value="Medications" style="ellipse;whiteSpace=wrap;html=1;rounded=1;fillColor=#fff2cc;strokeColor=#d6b656;fontSize=15;fontFamily=Comic Sans MS;" parent="1" vertex="1">
          <mxGeometry x="-2782" y="-779" width="100" height="70" as="geometry" />
        </mxCell>
        <mxCell id="i0FzcZnS4csEfGver0WR-82" value="ADDNotes" style="ellipse;whiteSpace=wrap;html=1;rounded=1;fillColor=#fff2cc;strokeColor=#d6b656;fontSize=15;fontFamily=Comic Sans MS;" parent="1" vertex="1">
          <mxGeometry x="-2471" y="-739" width="100" height="70" as="geometry" />
        </mxCell>
        <mxCell id="i0FzcZnS4csEfGver0WR-85" style="edgeStyle=orthogonalEdgeStyle;rounded=1;orthogonalLoop=1;jettySize=auto;html=1;exitX=0.75;exitY=1;exitDx=0;exitDy=0;entryX=0;entryY=0.5;entryDx=0;entryDy=0;fillColor=#a20025;strokeColor=#6F0000;" parent="1" source="i0FzcZnS4csEfGver0WR-70" target="i0FzcZnS4csEfGver0WR-82" edge="1">
          <mxGeometry relative="1" as="geometry" />
        </mxCell>
        <mxCell id="i0FzcZnS4csEfGver0WR-93" style="edgeStyle=orthogonalEdgeStyle;rounded=1;orthogonalLoop=1;jettySize=auto;html=1;entryX=1;entryY=0.5;entryDx=0;entryDy=0;exitX=0.5;exitY=1;exitDx=0;exitDy=0;fillColor=#a20025;strokeColor=#6F0000;strokeWidth=2;endArrow=ERoneToMany;endFill=0;" parent="1" source="i0FzcZnS4csEfGver0WR-89" target="i0FzcZnS4csEfGver0WR-70" edge="1">
          <mxGeometry relative="1" as="geometry" />
        </mxCell>
        <mxCell id="i0FzcZnS4csEfGver0WR-89" value="Do" style="rhombus;whiteSpace=wrap;html=1;fontSize=15;fontFamily=Comic Sans MS;fillColor=#6a00ff;strokeColor=#3700CC;rounded=1;fontColor=#ffffff;" parent="1" vertex="1">
          <mxGeometry x="-2369" y="-1109" width="80" height="80" as="geometry" />
        </mxCell>
        <mxCell id="i0FzcZnS4csEfGver0WR-91" style="edgeStyle=orthogonalEdgeStyle;rounded=1;orthogonalLoop=1;jettySize=auto;html=1;entryX=0.861;entryY=0.95;entryDx=0;entryDy=0;entryPerimeter=0;fillColor=#a20025;strokeColor=#6F0000;strokeWidth=2;endArrow=ERmandOne;endFill=0;" parent="1" source="i0FzcZnS4csEfGver0WR-89" target="i0FzcZnS4csEfGver0WR-5" edge="1">
          <mxGeometry relative="1" as="geometry" />
        </mxCell>
        <mxCell id="i0FzcZnS4csEfGver0WR-95" style="edgeStyle=orthogonalEdgeStyle;rounded=1;orthogonalLoop=1;jettySize=auto;html=1;entryX=0.151;entryY=1.002;entryDx=0;entryDy=0;entryPerimeter=0;fillColor=#a20025;strokeColor=#6F0000;strokeWidth=2;endArrow=ERmandOne;endFill=0;" parent="1" source="i0FzcZnS4csEfGver0WR-94" target="i0FzcZnS4csEfGver0WR-4" edge="1">
          <mxGeometry relative="1" as="geometry" />
        </mxCell>
        <mxCell id="i0FzcZnS4csEfGver0WR-96" style="edgeStyle=orthogonalEdgeStyle;rounded=1;orthogonalLoop=1;jettySize=auto;html=1;entryX=0;entryY=0.5;entryDx=0;entryDy=0;exitX=0.5;exitY=1;exitDx=0;exitDy=0;fillColor=#a20025;strokeColor=#6F0000;strokeWidth=2;endArrow=ERoneToMany;endFill=0;" parent="1" source="i0FzcZnS4csEfGver0WR-94" target="i0FzcZnS4csEfGver0WR-70" edge="1">
          <mxGeometry relative="1" as="geometry" />
        </mxCell>
        <mxCell id="i0FzcZnS4csEfGver0WR-94" value="has" style="rhombus;whiteSpace=wrap;html=1;fontSize=15;fontFamily=Comic Sans MS;fillColor=#6a00ff;strokeColor=#3700CC;rounded=1;fontColor=#ffffff;" parent="1" vertex="1">
          <mxGeometry x="-2782" y="-1109" width="80" height="80" as="geometry" />
        </mxCell>
        <mxCell id="i0FzcZnS4csEfGver0WR-112" style="edgeStyle=orthogonalEdgeStyle;rounded=1;orthogonalLoop=1;jettySize=auto;html=1;entryX=1;entryY=0.5;entryDx=0;entryDy=0;fillColor=#a20025;strokeColor=#6F0000;" parent="1" source="i0FzcZnS4csEfGver0WR-99" target="i0FzcZnS4csEfGver0WR-104" edge="1">
          <mxGeometry relative="1" as="geometry" />
        </mxCell>
        <mxCell id="i0FzcZnS4csEfGver0WR-113" style="edgeStyle=orthogonalEdgeStyle;rounded=1;orthogonalLoop=1;jettySize=auto;html=1;entryX=0;entryY=0.5;entryDx=0;entryDy=0;fillColor=#a20025;strokeColor=#6F0000;" parent="1" source="i0FzcZnS4csEfGver0WR-99" target="i0FzcZnS4csEfGver0WR-110" edge="1">
          <mxGeometry relative="1" as="geometry" />
        </mxCell>
        <mxCell id="i0FzcZnS4csEfGver0WR-117" style="edgeStyle=orthogonalEdgeStyle;rounded=1;orthogonalLoop=1;jettySize=auto;html=1;fillColor=#a20025;strokeColor=#6F0000;" parent="1" source="i0FzcZnS4csEfGver0WR-99" edge="1">
          <mxGeometry relative="1" as="geometry">
            <mxPoint x="-2591" y="-309" as="targetPoint" />
          </mxGeometry>
        </mxCell>
        <mxCell id="i0FzcZnS4csEfGver0WR-118" style="edgeStyle=orthogonalEdgeStyle;rounded=1;orthogonalLoop=1;jettySize=auto;html=1;entryX=0.5;entryY=0;entryDx=0;entryDy=0;fillColor=#a20025;strokeColor=#6F0000;" parent="1" source="i0FzcZnS4csEfGver0WR-99" target="i0FzcZnS4csEfGver0WR-108" edge="1">
          <mxGeometry relative="1" as="geometry">
            <mxPoint x="-2471" y="-309" as="targetPoint" />
          </mxGeometry>
        </mxCell>
        <mxCell id="i0FzcZnS4csEfGver0WR-121" style="edgeStyle=orthogonalEdgeStyle;rounded=1;orthogonalLoop=1;jettySize=auto;html=1;exitX=1;exitY=0.75;exitDx=0;exitDy=0;entryX=0;entryY=0.5;entryDx=0;entryDy=0;fillColor=#a20025;strokeColor=#6F0000;" parent="1" source="i0FzcZnS4csEfGver0WR-99" target="i0FzcZnS4csEfGver0WR-109" edge="1">
          <mxGeometry relative="1" as="geometry" />
        </mxCell>
        <mxCell id="i0FzcZnS4csEfGver0WR-123" style="edgeStyle=orthogonalEdgeStyle;rounded=1;orthogonalLoop=1;jettySize=auto;html=1;exitX=0;exitY=0.75;exitDx=0;exitDy=0;entryX=1;entryY=0.5;entryDx=0;entryDy=0;fillColor=#a20025;strokeColor=#6F0000;" parent="1" source="i0FzcZnS4csEfGver0WR-99" target="i0FzcZnS4csEfGver0WR-105" edge="1">
          <mxGeometry relative="1" as="geometry" />
        </mxCell>
        <mxCell id="i0FzcZnS4csEfGver0WR-124" style="edgeStyle=orthogonalEdgeStyle;rounded=1;orthogonalLoop=1;jettySize=auto;html=1;exitX=0.75;exitY=0;exitDx=0;exitDy=0;entryX=0;entryY=0.5;entryDx=0;entryDy=0;" parent="1" source="i0FzcZnS4csEfGver0WR-99" target="i0FzcZnS4csEfGver0WR-111" edge="1">
          <mxGeometry relative="1" as="geometry" />
        </mxCell>
        <mxCell id="i0FzcZnS4csEfGver0WR-99" value="Prescription" style="rounded=1;whiteSpace=wrap;html=1;fillColor=#e1d5e7;strokeColor=#9673a6;fontFamily=Comic Sans MS;fontSize=15;" parent="1" vertex="1">
          <mxGeometry x="-2591" y="-449" width="120" height="60" as="geometry" />
        </mxCell>
        <mxCell id="i0FzcZnS4csEfGver0WR-102" style="edgeStyle=orthogonalEdgeStyle;rounded=1;orthogonalLoop=1;jettySize=auto;html=1;entryX=0.5;entryY=0;entryDx=0;entryDy=0;fillColor=#a20025;strokeColor=#6F0000;strokeWidth=2;endArrow=ERzeroToOne;endFill=0;" parent="1" source="i0FzcZnS4csEfGver0WR-100" target="i0FzcZnS4csEfGver0WR-99" edge="1">
          <mxGeometry relative="1" as="geometry" />
        </mxCell>
        <mxCell id="i0FzcZnS4csEfGver0WR-103" style="edgeStyle=orthogonalEdgeStyle;rounded=1;orthogonalLoop=1;jettySize=auto;html=1;fillColor=#a20025;strokeColor=#6F0000;strokeWidth=2;endArrow=ERmandOne;endFill=0;" parent="1" source="i0FzcZnS4csEfGver0WR-100" target="i0FzcZnS4csEfGver0WR-70" edge="1">
          <mxGeometry relative="1" as="geometry" />
        </mxCell>
        <mxCell id="i0FzcZnS4csEfGver0WR-100" value="has" style="rhombus;whiteSpace=wrap;html=1;fontSize=15;fontFamily=Comic Sans MS;fillColor=#6a00ff;strokeColor=#3700CC;rounded=1;fontColor=#ffffff;" parent="1" vertex="1">
          <mxGeometry x="-2571" y="-679" width="80" height="80" as="geometry" />
        </mxCell>
        <mxCell id="i0FzcZnS4csEfGver0WR-104" value="&lt;u&gt;ID&lt;/u&gt;" style="ellipse;whiteSpace=wrap;html=1;rounded=1;fillColor=#fff2cc;strokeColor=#d6b656;fontSize=15;fontFamily=Comic Sans MS;" parent="1" vertex="1">
          <mxGeometry x="-2751" y="-454" width="100" height="70" as="geometry" />
        </mxCell>
        <mxCell id="i0FzcZnS4csEfGver0WR-105" value="" style="ellipse;whiteSpace=wrap;html=1;rounded=1;fillColor=#fff2cc;strokeColor=#d6b656;fontSize=15;fontFamily=Comic Sans MS;" parent="1" vertex="1">
          <mxGeometry x="-2741" y="-369" width="100" height="70" as="geometry" />
        </mxCell>
        <mxCell id="i0FzcZnS4csEfGver0WR-106" value="&lt;font style=&quot;font-size: 13px;&quot;&gt;medication name&lt;/font&gt;" style="ellipse;whiteSpace=wrap;html=1;rounded=1;fillColor=#fff2cc;strokeColor=#d6b656;fontSize=15;fontFamily=Comic Sans MS;" parent="1" vertex="1">
          <mxGeometry x="-2737.41" y="-364.92999999999984" width="92.81" height="61.87" as="geometry" />
        </mxCell>
        <mxCell id="i0FzcZnS4csEfGver0WR-107" value="dosage" style="ellipse;whiteSpace=wrap;html=1;rounded=1;fillColor=#fff2cc;strokeColor=#d6b656;fontSize=15;fontFamily=Comic Sans MS;" parent="1" vertex="1">
          <mxGeometry x="-2641" y="-309" width="100" height="70" as="geometry" />
        </mxCell>
        <mxCell id="i0FzcZnS4csEfGver0WR-108" value="frequency" style="ellipse;whiteSpace=wrap;html=1;rounded=1;fillColor=#fff2cc;strokeColor=#d6b656;fontSize=15;fontFamily=Comic Sans MS;" parent="1" vertex="1">
          <mxGeometry x="-2521" y="-309" width="100" height="70" as="geometry" />
        </mxCell>
        <mxCell id="i0FzcZnS4csEfGver0WR-109" value="startDate" style="ellipse;whiteSpace=wrap;html=1;rounded=1;fillColor=#fff2cc;strokeColor=#d6b656;fontSize=15;fontFamily=Comic Sans MS;" parent="1" vertex="1">
          <mxGeometry x="-2421" y="-369" width="100" height="70" as="geometry" />
        </mxCell>
        <mxCell id="i0FzcZnS4csEfGver0WR-110" value="endDate" style="ellipse;whiteSpace=wrap;html=1;rounded=1;fillColor=#fff2cc;strokeColor=#d6b656;fontSize=15;fontFamily=Comic Sans MS;" parent="1" vertex="1">
          <mxGeometry x="-2411" y="-454" width="100" height="70" as="geometry" />
        </mxCell>
        <mxCell id="i0FzcZnS4csEfGver0WR-111" value="instructions" style="ellipse;whiteSpace=wrap;html=1;rounded=1;fillColor=#fff2cc;strokeColor=#d6b656;fontSize=15;fontFamily=Comic Sans MS;" parent="1" vertex="1">
          <mxGeometry x="-2476.98" y="-539" width="100" height="70" as="geometry" />
        </mxCell>
        <mxCell id="i0FzcZnS4csEfGver0WR-131" style="edgeStyle=orthogonalEdgeStyle;rounded=1;orthogonalLoop=1;jettySize=auto;html=1;entryX=0.5;entryY=0;entryDx=0;entryDy=0;fillColor=#a20025;strokeColor=#6F0000;" parent="1" source="i0FzcZnS4csEfGver0WR-125" target="i0FzcZnS4csEfGver0WR-130" edge="1">
          <mxGeometry relative="1" as="geometry" />
        </mxCell>
        <mxCell id="i0FzcZnS4csEfGver0WR-133" style="edgeStyle=orthogonalEdgeStyle;rounded=1;orthogonalLoop=1;jettySize=auto;html=1;exitX=0.75;exitY=1;exitDx=0;exitDy=0;entryX=0;entryY=0.5;entryDx=0;entryDy=0;fillColor=#a20025;strokeColor=#6F0000;" parent="1" source="i0FzcZnS4csEfGver0WR-125" target="i0FzcZnS4csEfGver0WR-132" edge="1">
          <mxGeometry relative="1" as="geometry" />
        </mxCell>
        <mxCell id="i0FzcZnS4csEfGver0WR-135" style="edgeStyle=orthogonalEdgeStyle;rounded=1;orthogonalLoop=1;jettySize=auto;html=1;entryX=0;entryY=0.5;entryDx=0;entryDy=0;fillColor=#a20025;strokeColor=#6F0000;" parent="1" source="i0FzcZnS4csEfGver0WR-125" target="i0FzcZnS4csEfGver0WR-134" edge="1">
          <mxGeometry relative="1" as="geometry" />
        </mxCell>
        <mxCell id="i0FzcZnS4csEfGver0WR-137" style="edgeStyle=orthogonalEdgeStyle;rounded=1;orthogonalLoop=1;jettySize=auto;html=1;exitX=0.75;exitY=0;exitDx=0;exitDy=0;entryX=0;entryY=0.5;entryDx=0;entryDy=0;fillColor=#a20025;strokeColor=#6F0000;" parent="1" source="i0FzcZnS4csEfGver0WR-125" target="i0FzcZnS4csEfGver0WR-136" edge="1">
          <mxGeometry relative="1" as="geometry" />
        </mxCell>
        <mxCell id="i0FzcZnS4csEfGver0WR-125" value="Payment" style="rounded=1;whiteSpace=wrap;html=1;fillColor=#e1d5e7;strokeColor=#9673a6;fontFamily=Comic Sans MS;fontSize=15;" parent="1" vertex="1">
          <mxGeometry x="-2061" y="-1199" width="120" height="60" as="geometry" />
        </mxCell>
        <mxCell id="i0FzcZnS4csEfGver0WR-128" style="edgeStyle=orthogonalEdgeStyle;rounded=1;orthogonalLoop=1;jettySize=auto;html=1;entryX=0.75;entryY=1;entryDx=0;entryDy=0;fillColor=#a20025;strokeColor=#6F0000;strokeWidth=2;endArrow=ERmandOne;endFill=0;" parent="1" source="i0FzcZnS4csEfGver0WR-126" target="i0FzcZnS4csEfGver0WR-45" edge="1">
          <mxGeometry relative="1" as="geometry" />
        </mxCell>
        <mxCell id="i0FzcZnS4csEfGver0WR-129" style="edgeStyle=orthogonalEdgeStyle;rounded=1;orthogonalLoop=1;jettySize=auto;html=1;entryX=0;entryY=0.5;entryDx=0;entryDy=0;fillColor=#a20025;strokeColor=#6F0000;strokeWidth=2;endArrow=ERmandOne;endFill=0;" parent="1" source="i0FzcZnS4csEfGver0WR-126" target="i0FzcZnS4csEfGver0WR-125" edge="1">
          <mxGeometry relative="1" as="geometry" />
        </mxCell>
        <mxCell id="i0FzcZnS4csEfGver0WR-126" value="pay" style="rhombus;whiteSpace=wrap;html=1;fontSize=15;fontFamily=Comic Sans MS;fillColor=#6a00ff;strokeColor=#3700CC;rounded=1;fontColor=#ffffff;" parent="1" vertex="1">
          <mxGeometry x="-2251" y="-1209" width="80" height="80" as="geometry" />
        </mxCell>
        <mxCell id="i0FzcZnS4csEfGver0WR-130" value="&lt;u&gt;&lt;font&gt;ID&lt;/font&gt;&lt;/u&gt;" style="ellipse;whiteSpace=wrap;html=1;rounded=1;fillColor=#fff2cc;strokeColor=#d6b656;fontSize=15;fontFamily=Comic Sans MS;" parent="1" vertex="1">
          <mxGeometry x="-2051" y="-1079" width="100" height="70" as="geometry" />
        </mxCell>
        <mxCell id="i0FzcZnS4csEfGver0WR-132" value="&lt;font style=&quot;&quot;&gt;Method&lt;/font&gt;" style="ellipse;whiteSpace=wrap;html=1;rounded=1;fillColor=#fff2cc;strokeColor=#d6b656;fontSize=15;fontFamily=Comic Sans MS;" parent="1" vertex="1">
          <mxGeometry x="-1931" y="-1129" width="100" height="70" as="geometry" />
        </mxCell>
        <mxCell id="i0FzcZnS4csEfGver0WR-134" value="&lt;font style=&quot;&quot;&gt;Amount&lt;/font&gt;" style="ellipse;whiteSpace=wrap;html=1;rounded=1;fillColor=#fff2cc;strokeColor=#d6b656;fontSize=15;fontFamily=Comic Sans MS;" parent="1" vertex="1">
          <mxGeometry x="-1891" y="-1204" width="100" height="70" as="geometry" />
        </mxCell>
        <mxCell id="i0FzcZnS4csEfGver0WR-136" value="&lt;font style=&quot;&quot;&gt;ADDNotes&lt;/font&gt;" style="ellipse;whiteSpace=wrap;html=1;rounded=1;fillColor=#fff2cc;strokeColor=#d6b656;fontSize=15;fontFamily=Comic Sans MS;" parent="1" vertex="1">
          <mxGeometry x="-1931" y="-1279" width="100" height="70" as="geometry" />
        </mxCell>
        <mxCell id="i0FzcZnS4csEfGver0WR-138" value="&lt;font style=&quot;font-size: 30px;&quot; face=&quot;Comic Sans MS&quot;&gt;Simple Clinic&lt;/font&gt;" style="text;html=1;align=center;verticalAlign=middle;whiteSpace=wrap;rounded=0;" parent="1" vertex="1">
          <mxGeometry x="-2621" y="-2119" width="180" height="30" as="geometry" />
        </mxCell>
        <mxCell id="i0FzcZnS4csEfGver0WR-139" value="&lt;font style=&quot;font-size: 25px;&quot; face=&quot;Comic Sans MS&quot;&gt;شخص&lt;/font&gt;" style="text;html=1;align=center;verticalAlign=middle;whiteSpace=wrap;rounded=0;dashed=1;strokeColor=default;" parent="1" vertex="1">
          <mxGeometry x="-2721" y="-1724" width="110" height="30" as="geometry" />
        </mxCell>
        <mxCell id="i0FzcZnS4csEfGver0WR-140" value="" style="endArrow=classic;html=1;rounded=1;" parent="1" edge="1">
          <mxGeometry width="50" height="50" relative="1" as="geometry">
            <mxPoint x="-2621" y="-1729" as="sourcePoint" />
            <mxPoint x="-2591" y="-1769" as="targetPoint" />
          </mxGeometry>
        </mxCell>
        <mxCell id="i0FzcZnS4csEfGver0WR-141" value="&lt;font style=&quot;font-size: 25px;&quot; face=&quot;Comic Sans MS&quot;&gt;مريض&lt;/font&gt;" style="text;html=1;align=center;verticalAlign=middle;whiteSpace=wrap;rounded=0;dashed=1;strokeColor=default;" parent="1" vertex="1">
          <mxGeometry x="-2861" y="-1609" width="110" height="30" as="geometry" />
        </mxCell>
        <mxCell id="i0FzcZnS4csEfGver0WR-143" value="" style="endArrow=classic;html=1;rounded=1;exitX=0.905;exitY=1.074;exitDx=0;exitDy=0;exitPerimeter=0;" parent="1" source="i0FzcZnS4csEfGver0WR-141" edge="1">
          <mxGeometry width="50" height="50" relative="1" as="geometry">
            <mxPoint x="-2751" y="-1529" as="sourcePoint" />
            <mxPoint x="-2741" y="-1529" as="targetPoint" />
          </mxGeometry>
        </mxCell>
        <mxCell id="i0FzcZnS4csEfGver0WR-144" value="&lt;font style=&quot;font-size: 25px;&quot; face=&quot;Comic Sans MS&quot;&gt;دكتور&lt;/font&gt;" style="text;html=1;align=center;verticalAlign=middle;whiteSpace=wrap;rounded=0;dashed=1;strokeColor=default;" parent="1" vertex="1">
          <mxGeometry x="-2321" y="-1609" width="110" height="30" as="geometry" />
        </mxCell>
        <mxCell id="i0FzcZnS4csEfGver0WR-146" value="" style="endArrow=classic;html=1;rounded=1;exitX=0.103;exitY=1.12;exitDx=0;exitDy=0;exitPerimeter=0;" parent="1" source="i0FzcZnS4csEfGver0WR-144" edge="1">
          <mxGeometry width="50" height="50" relative="1" as="geometry">
            <mxPoint x="-2311" y="-1569" as="sourcePoint" />
            <mxPoint x="-2321" y="-1529" as="targetPoint" />
          </mxGeometry>
        </mxCell>
        <mxCell id="i0FzcZnS4csEfGver0WR-147" value="&lt;font style=&quot;font-size: 25px;&quot; face=&quot;Comic Sans MS&quot;&gt;موعد&lt;/font&gt;" style="text;html=1;align=center;verticalAlign=middle;whiteSpace=wrap;rounded=0;dashed=1;strokeColor=default;" parent="1" vertex="1">
          <mxGeometry x="-2911" y="-1199" width="110" height="30" as="geometry" />
        </mxCell>
        <mxCell id="i0FzcZnS4csEfGver0WR-148" value="" style="endArrow=classic;html=1;rounded=1;exitX=1;exitY=0.25;exitDx=0;exitDy=0;" parent="1" source="i0FzcZnS4csEfGver0WR-147" edge="1">
          <mxGeometry width="50" height="50" relative="1" as="geometry">
            <mxPoint x="-2791" y="-1189" as="sourcePoint" />
            <mxPoint x="-2601" y="-1219" as="targetPoint" />
          </mxGeometry>
        </mxCell>
        <mxCell id="i0FzcZnS4csEfGver0WR-149" value="&lt;font style=&quot;font-size: 25px;&quot; face=&quot;Comic Sans MS&quot;&gt;سجل طبي&lt;/font&gt;" style="text;html=1;align=center;verticalAlign=middle;whiteSpace=wrap;rounded=0;dashed=1;strokeColor=default;" parent="1" vertex="1">
          <mxGeometry x="-2481.98" y="-999" width="110" height="30" as="geometry" />
        </mxCell>
        <mxCell id="i0FzcZnS4csEfGver0WR-150" value="" style="endArrow=classic;html=1;rounded=1;exitX=0.103;exitY=1.12;exitDx=0;exitDy=0;exitPerimeter=0;" parent="1" edge="1">
          <mxGeometry width="50" height="50" relative="1" as="geometry">
            <mxPoint x="-2471" y="-969" as="sourcePoint" />
            <mxPoint x="-2491" y="-923" as="targetPoint" />
          </mxGeometry>
        </mxCell>
        <mxCell id="i0FzcZnS4csEfGver0WR-151" value="&lt;font style=&quot;font-size: 25px;&quot; face=&quot;Comic Sans MS&quot;&gt;وصفة طبيه&lt;/font&gt;" style="text;html=1;align=center;verticalAlign=middle;whiteSpace=wrap;rounded=0;dashed=1;strokeColor=default;" parent="1" vertex="1">
          <mxGeometry x="-2691" y="-529" width="110" height="30" as="geometry" />
        </mxCell>
        <mxCell id="i0FzcZnS4csEfGver0WR-152" value="" style="endArrow=classic;html=1;rounded=1;exitX=0.867;exitY=1.088;exitDx=0;exitDy=0;exitPerimeter=0;" parent="1" source="i0FzcZnS4csEfGver0WR-151" edge="1">
          <mxGeometry width="50" height="50" relative="1" as="geometry">
            <mxPoint x="-2571" y="-479" as="sourcePoint" />
            <mxPoint x="-2581" y="-459" as="targetPoint" />
          </mxGeometry>
        </mxCell>
        <mxCell id="i0FzcZnS4csEfGver0WR-153" value="&lt;font style=&quot;font-size: 25px;&quot; face=&quot;Comic Sans MS&quot;&gt;المدفوعات&lt;/font&gt;" style="text;html=1;align=center;verticalAlign=middle;whiteSpace=wrap;rounded=0;dashed=1;strokeColor=default;" parent="1" vertex="1">
          <mxGeometry x="-2171" y="-1289" width="110" height="30" as="geometry" />
        </mxCell>
        <mxCell id="i0FzcZnS4csEfGver0WR-155" value="" style="endArrow=classic;html=1;rounded=1;exitX=0.818;exitY=1;exitDx=0;exitDy=0;exitPerimeter=0;" parent="1" source="i0FzcZnS4csEfGver0WR-153" edge="1">
          <mxGeometry width="50" height="50" relative="1" as="geometry">
            <mxPoint x="-2070" y="-1229" as="sourcePoint" />
            <mxPoint x="-2051" y="-1209" as="targetPoint" />
          </mxGeometry>
        </mxCell>
        <mxCell id="fFWgREcMKCbxpo3257Eq-2" value="&lt;font face=&quot;Comic Sans MS&quot; style=&quot;font-size: 15px; font-weight: normal;&quot;&gt;Person&lt;/font&gt;" style="shape=table;startSize=30;container=1;collapsible=1;childLayout=tableLayout;fixedRows=1;rowLines=1;fontStyle=1;align=center;resizeLast=1;html=1;rounded=1;arcSize=15;fillColor=#e1d5e7;strokeColor=#9673a6;resizeLastRow=0;absoluteArcSize=0;" vertex="1" parent="1">
          <mxGeometry x="-951" y="-1899" width="180" height="240" as="geometry" />
        </mxCell>
        <mxCell id="fFWgREcMKCbxpo3257Eq-3" value="" style="shape=tableRow;horizontal=0;startSize=0;swimlaneHead=0;swimlaneBody=0;fillColor=none;collapsible=0;dropTarget=0;points=[[0,0.5],[1,0.5]];portConstraint=eastwest;top=0;left=0;right=0;bottom=1;rounded=1;" vertex="1" parent="fFWgREcMKCbxpo3257Eq-2">
          <mxGeometry y="30" width="180" height="30" as="geometry" />
        </mxCell>
        <mxCell id="fFWgREcMKCbxpo3257Eq-4" value="PK" style="shape=partialRectangle;connectable=0;fillColor=none;top=0;left=0;bottom=0;right=0;fontStyle=1;overflow=hidden;whiteSpace=wrap;html=1;rounded=1;" vertex="1" parent="fFWgREcMKCbxpo3257Eq-3">
          <mxGeometry width="30" height="30" as="geometry">
            <mxRectangle width="30" height="30" as="alternateBounds" />
          </mxGeometry>
        </mxCell>
        <mxCell id="fFWgREcMKCbxpo3257Eq-5" value="ID" style="shape=partialRectangle;connectable=0;fillColor=none;top=0;left=0;bottom=0;right=0;align=left;spacingLeft=6;fontStyle=5;overflow=hidden;whiteSpace=wrap;html=1;rounded=1;" vertex="1" parent="fFWgREcMKCbxpo3257Eq-3">
          <mxGeometry x="30" width="150" height="30" as="geometry">
            <mxRectangle width="150" height="30" as="alternateBounds" />
          </mxGeometry>
        </mxCell>
        <mxCell id="fFWgREcMKCbxpo3257Eq-6" value="" style="shape=tableRow;horizontal=0;startSize=0;swimlaneHead=0;swimlaneBody=0;fillColor=none;collapsible=0;dropTarget=0;points=[[0,0.5],[1,0.5]];portConstraint=eastwest;top=0;left=0;right=0;bottom=0;rounded=1;" vertex="1" parent="fFWgREcMKCbxpo3257Eq-2">
          <mxGeometry y="60" width="180" height="30" as="geometry" />
        </mxCell>
        <mxCell id="fFWgREcMKCbxpo3257Eq-7" value="" style="shape=partialRectangle;connectable=0;fillColor=none;top=0;left=0;bottom=0;right=0;editable=1;overflow=hidden;whiteSpace=wrap;html=1;rounded=1;" vertex="1" parent="fFWgREcMKCbxpo3257Eq-6">
          <mxGeometry width="30" height="30" as="geometry">
            <mxRectangle width="30" height="30" as="alternateBounds" />
          </mxGeometry>
        </mxCell>
        <mxCell id="fFWgREcMKCbxpo3257Eq-8" value="FirstName" style="shape=partialRectangle;connectable=0;fillColor=none;top=0;left=0;bottom=0;right=0;align=left;spacingLeft=6;overflow=hidden;whiteSpace=wrap;html=1;rounded=1;" vertex="1" parent="fFWgREcMKCbxpo3257Eq-6">
          <mxGeometry x="30" width="150" height="30" as="geometry">
            <mxRectangle width="150" height="30" as="alternateBounds" />
          </mxGeometry>
        </mxCell>
        <mxCell id="fFWgREcMKCbxpo3257Eq-9" value="" style="shape=tableRow;horizontal=0;startSize=0;swimlaneHead=0;swimlaneBody=0;fillColor=none;collapsible=0;dropTarget=0;points=[[0,0.5],[1,0.5]];portConstraint=eastwest;top=0;left=0;right=0;bottom=0;rounded=1;" vertex="1" parent="fFWgREcMKCbxpo3257Eq-2">
          <mxGeometry y="90" width="180" height="30" as="geometry" />
        </mxCell>
        <mxCell id="fFWgREcMKCbxpo3257Eq-10" value="" style="shape=partialRectangle;connectable=0;fillColor=none;top=0;left=0;bottom=0;right=0;editable=1;overflow=hidden;whiteSpace=wrap;html=1;rounded=1;" vertex="1" parent="fFWgREcMKCbxpo3257Eq-9">
          <mxGeometry width="30" height="30" as="geometry">
            <mxRectangle width="30" height="30" as="alternateBounds" />
          </mxGeometry>
        </mxCell>
        <mxCell id="fFWgREcMKCbxpo3257Eq-11" value="LastName&lt;span style=&quot;white-space: pre;&quot;&gt;&#x9;&lt;/span&gt;" style="shape=partialRectangle;connectable=0;fillColor=none;top=0;left=0;bottom=0;right=0;align=left;spacingLeft=6;overflow=hidden;whiteSpace=wrap;html=1;rounded=1;" vertex="1" parent="fFWgREcMKCbxpo3257Eq-9">
          <mxGeometry x="30" width="150" height="30" as="geometry">
            <mxRectangle width="150" height="30" as="alternateBounds" />
          </mxGeometry>
        </mxCell>
        <mxCell id="fFWgREcMKCbxpo3257Eq-12" value="" style="shape=tableRow;horizontal=0;startSize=0;swimlaneHead=0;swimlaneBody=0;fillColor=none;collapsible=0;dropTarget=0;points=[[0,0.5],[1,0.5]];portConstraint=eastwest;top=0;left=0;right=0;bottom=0;rounded=1;" vertex="1" parent="fFWgREcMKCbxpo3257Eq-2">
          <mxGeometry y="120" width="180" height="30" as="geometry" />
        </mxCell>
        <mxCell id="fFWgREcMKCbxpo3257Eq-13" value="" style="shape=partialRectangle;connectable=0;fillColor=none;top=0;left=0;bottom=0;right=0;editable=1;overflow=hidden;whiteSpace=wrap;html=1;rounded=1;" vertex="1" parent="fFWgREcMKCbxpo3257Eq-12">
          <mxGeometry width="30" height="30" as="geometry">
            <mxRectangle width="30" height="30" as="alternateBounds" />
          </mxGeometry>
        </mxCell>
        <mxCell id="fFWgREcMKCbxpo3257Eq-14" value="Gender" style="shape=partialRectangle;connectable=0;fillColor=none;top=0;left=0;bottom=0;right=0;align=left;spacingLeft=6;overflow=hidden;whiteSpace=wrap;html=1;rounded=1;" vertex="1" parent="fFWgREcMKCbxpo3257Eq-12">
          <mxGeometry x="30" width="150" height="30" as="geometry">
            <mxRectangle width="150" height="30" as="alternateBounds" />
          </mxGeometry>
        </mxCell>
        <mxCell id="fFWgREcMKCbxpo3257Eq-15" value="" style="shape=tableRow;horizontal=0;startSize=0;swimlaneHead=0;swimlaneBody=0;fillColor=none;collapsible=0;dropTarget=0;points=[[0,0.5],[1,0.5]];portConstraint=eastwest;top=0;left=0;right=0;bottom=0;rounded=1;" vertex="1" parent="fFWgREcMKCbxpo3257Eq-2">
          <mxGeometry y="150" width="180" height="30" as="geometry" />
        </mxCell>
        <mxCell id="fFWgREcMKCbxpo3257Eq-16" value="" style="shape=partialRectangle;connectable=0;fillColor=none;top=0;left=0;bottom=0;right=0;editable=1;overflow=hidden;whiteSpace=wrap;html=1;rounded=1;" vertex="1" parent="fFWgREcMKCbxpo3257Eq-15">
          <mxGeometry width="30" height="30" as="geometry">
            <mxRectangle width="30" height="30" as="alternateBounds" />
          </mxGeometry>
        </mxCell>
        <mxCell id="fFWgREcMKCbxpo3257Eq-17" value="BirthDate" style="shape=partialRectangle;connectable=0;fillColor=none;top=0;left=0;bottom=0;right=0;align=left;spacingLeft=6;overflow=hidden;whiteSpace=wrap;html=1;rounded=1;" vertex="1" parent="fFWgREcMKCbxpo3257Eq-15">
          <mxGeometry x="30" width="150" height="30" as="geometry">
            <mxRectangle width="150" height="30" as="alternateBounds" />
          </mxGeometry>
        </mxCell>
        <mxCell id="fFWgREcMKCbxpo3257Eq-18" value="" style="shape=tableRow;horizontal=0;startSize=0;swimlaneHead=0;swimlaneBody=0;fillColor=none;collapsible=0;dropTarget=0;points=[[0,0.5],[1,0.5]];portConstraint=eastwest;top=0;left=0;right=0;bottom=0;rounded=1;" vertex="1" parent="fFWgREcMKCbxpo3257Eq-2">
          <mxGeometry y="180" width="180" height="30" as="geometry" />
        </mxCell>
        <mxCell id="fFWgREcMKCbxpo3257Eq-19" value="" style="shape=partialRectangle;connectable=0;fillColor=none;top=0;left=0;bottom=0;right=0;editable=1;overflow=hidden;whiteSpace=wrap;html=1;rounded=1;" vertex="1" parent="fFWgREcMKCbxpo3257Eq-18">
          <mxGeometry width="30" height="30" as="geometry">
            <mxRectangle width="30" height="30" as="alternateBounds" />
          </mxGeometry>
        </mxCell>
        <mxCell id="fFWgREcMKCbxpo3257Eq-20" value="Email" style="shape=partialRectangle;connectable=0;fillColor=none;top=0;left=0;bottom=0;right=0;align=left;spacingLeft=6;overflow=hidden;whiteSpace=wrap;html=1;rounded=1;" vertex="1" parent="fFWgREcMKCbxpo3257Eq-18">
          <mxGeometry x="30" width="150" height="30" as="geometry">
            <mxRectangle width="150" height="30" as="alternateBounds" />
          </mxGeometry>
        </mxCell>
        <mxCell id="fFWgREcMKCbxpo3257Eq-21" value="" style="shape=tableRow;horizontal=0;startSize=0;swimlaneHead=0;swimlaneBody=0;fillColor=none;collapsible=0;dropTarget=0;points=[[0,0.5],[1,0.5]];portConstraint=eastwest;top=0;left=0;right=0;bottom=0;rounded=1;" vertex="1" parent="fFWgREcMKCbxpo3257Eq-2">
          <mxGeometry y="210" width="180" height="30" as="geometry" />
        </mxCell>
        <mxCell id="fFWgREcMKCbxpo3257Eq-22" value="" style="shape=partialRectangle;connectable=0;fillColor=none;top=0;left=0;bottom=0;right=0;editable=1;overflow=hidden;whiteSpace=wrap;html=1;rounded=1;" vertex="1" parent="fFWgREcMKCbxpo3257Eq-21">
          <mxGeometry width="30" height="30" as="geometry">
            <mxRectangle width="30" height="30" as="alternateBounds" />
          </mxGeometry>
        </mxCell>
        <mxCell id="fFWgREcMKCbxpo3257Eq-23" value="Address" style="shape=partialRectangle;connectable=0;fillColor=none;top=0;left=0;bottom=0;right=0;align=left;spacingLeft=6;overflow=hidden;whiteSpace=wrap;html=1;rounded=1;" vertex="1" parent="fFWgREcMKCbxpo3257Eq-21">
          <mxGeometry x="30" width="150" height="30" as="geometry">
            <mxRectangle width="150" height="30" as="alternateBounds" />
          </mxGeometry>
        </mxCell>
        <mxCell id="fFWgREcMKCbxpo3257Eq-27" value="&lt;font face=&quot;Comic Sans MS&quot; style=&quot;font-size: 15px; font-weight: normal;&quot;&gt;Person&lt;/font&gt;" style="shape=table;startSize=30;container=1;collapsible=1;childLayout=tableLayout;fixedRows=1;rowLines=1;fontStyle=1;align=center;resizeLast=1;html=1;rounded=1;arcSize=15;fillColor=#e1d5e7;strokeColor=#9673a6;resizeLastRow=0;absoluteArcSize=0;" vertex="1" parent="1">
          <mxGeometry x="-1221" y="-1899" width="180" height="120" as="geometry" />
        </mxCell>
        <mxCell id="fFWgREcMKCbxpo3257Eq-28" value="" style="shape=tableRow;horizontal=0;startSize=0;swimlaneHead=0;swimlaneBody=0;fillColor=none;collapsible=0;dropTarget=0;points=[[0,0.5],[1,0.5]];portConstraint=eastwest;top=0;left=0;right=0;bottom=1;rounded=1;" vertex="1" parent="fFWgREcMKCbxpo3257Eq-27">
          <mxGeometry y="30" width="180" height="30" as="geometry" />
        </mxCell>
        <mxCell id="fFWgREcMKCbxpo3257Eq-29" value="PK" style="shape=partialRectangle;connectable=0;fillColor=none;top=0;left=0;bottom=0;right=0;fontStyle=1;overflow=hidden;whiteSpace=wrap;html=1;rounded=1;" vertex="1" parent="fFWgREcMKCbxpo3257Eq-28">
          <mxGeometry width="30" height="30" as="geometry">
            <mxRectangle width="30" height="30" as="alternateBounds" />
          </mxGeometry>
        </mxCell>
        <mxCell id="fFWgREcMKCbxpo3257Eq-30" value="ID" style="shape=partialRectangle;connectable=0;fillColor=none;top=0;left=0;bottom=0;right=0;align=left;spacingLeft=6;fontStyle=5;overflow=hidden;whiteSpace=wrap;html=1;rounded=1;" vertex="1" parent="fFWgREcMKCbxpo3257Eq-28">
          <mxGeometry x="30" width="150" height="30" as="geometry">
            <mxRectangle width="150" height="30" as="alternateBounds" />
          </mxGeometry>
        </mxCell>
        <mxCell id="fFWgREcMKCbxpo3257Eq-31" value="" style="shape=tableRow;horizontal=0;startSize=0;swimlaneHead=0;swimlaneBody=0;fillColor=none;collapsible=0;dropTarget=0;points=[[0,0.5],[1,0.5]];portConstraint=eastwest;top=0;left=0;right=0;bottom=0;rounded=1;" vertex="1" parent="fFWgREcMKCbxpo3257Eq-27">
          <mxGeometry y="60" width="180" height="30" as="geometry" />
        </mxCell>
        <mxCell id="fFWgREcMKCbxpo3257Eq-32" value="" style="shape=partialRectangle;connectable=0;fillColor=none;top=0;left=0;bottom=0;right=0;editable=1;overflow=hidden;whiteSpace=wrap;html=1;rounded=1;" vertex="1" parent="fFWgREcMKCbxpo3257Eq-31">
          <mxGeometry width="30" height="30" as="geometry">
            <mxRectangle width="30" height="30" as="alternateBounds" />
          </mxGeometry>
        </mxCell>
        <mxCell id="fFWgREcMKCbxpo3257Eq-33" value="Phone" style="shape=partialRectangle;connectable=0;fillColor=none;top=0;left=0;bottom=0;right=0;align=left;spacingLeft=6;overflow=hidden;whiteSpace=wrap;html=1;rounded=1;" vertex="1" parent="fFWgREcMKCbxpo3257Eq-31">
          <mxGeometry x="30" width="150" height="30" as="geometry">
            <mxRectangle width="150" height="30" as="alternateBounds" />
          </mxGeometry>
        </mxCell>
        <mxCell id="fFWgREcMKCbxpo3257Eq-49" value="" style="shape=tableRow;horizontal=0;startSize=0;swimlaneHead=0;swimlaneBody=0;fillColor=none;collapsible=0;dropTarget=0;points=[[0,0.5],[1,0.5]];portConstraint=eastwest;top=0;left=0;right=0;bottom=0;rounded=1;" vertex="1" parent="fFWgREcMKCbxpo3257Eq-27">
          <mxGeometry y="90" width="180" height="30" as="geometry" />
        </mxCell>
        <mxCell id="fFWgREcMKCbxpo3257Eq-50" value="FK" style="shape=partialRectangle;connectable=0;fillColor=none;top=0;left=0;bottom=0;right=0;editable=1;overflow=hidden;whiteSpace=wrap;html=1;rounded=1;" vertex="1" parent="fFWgREcMKCbxpo3257Eq-49">
          <mxGeometry width="30" height="30" as="geometry">
            <mxRectangle width="30" height="30" as="alternateBounds" />
          </mxGeometry>
        </mxCell>
        <mxCell id="fFWgREcMKCbxpo3257Eq-51" value="PersonID" style="shape=partialRectangle;connectable=0;fillColor=none;top=0;left=0;bottom=0;right=0;align=left;spacingLeft=6;overflow=hidden;whiteSpace=wrap;html=1;rounded=1;" vertex="1" parent="fFWgREcMKCbxpo3257Eq-49">
          <mxGeometry x="30" width="150" height="30" as="geometry">
            <mxRectangle width="150" height="30" as="alternateBounds" />
          </mxGeometry>
        </mxCell>
        <mxCell id="fFWgREcMKCbxpo3257Eq-52" style="edgeStyle=orthogonalEdgeStyle;rounded=1;orthogonalLoop=1;jettySize=auto;html=1;exitX=0;exitY=0.5;exitDx=0;exitDy=0;entryX=1;entryY=0.5;entryDx=0;entryDy=0;strokeWidth=2;fillColor=#a20025;strokeColor=#6F0000;endArrow=ERzeroToMany;endFill=0;startArrow=ERmandOne;startFill=0;" edge="1" parent="1" source="fFWgREcMKCbxpo3257Eq-3" target="fFWgREcMKCbxpo3257Eq-49">
          <mxGeometry relative="1" as="geometry" />
        </mxCell>
        <mxCell id="fFWgREcMKCbxpo3257Eq-53" value="&lt;font face=&quot;Comic Sans MS&quot; style=&quot;font-size: 15px; font-weight: normal;&quot;&gt;Patient&lt;/font&gt;" style="shape=table;startSize=30;container=1;collapsible=1;childLayout=tableLayout;fixedRows=1;rowLines=1;fontStyle=1;align=center;resizeLast=1;html=1;rounded=1;arcSize=15;fillColor=#e1d5e7;strokeColor=#9673a6;resizeLastRow=0;absoluteArcSize=0;" vertex="1" parent="1">
          <mxGeometry x="-1201" y="-1574" width="180" height="60" as="geometry" />
        </mxCell>
        <mxCell id="fFWgREcMKCbxpo3257Eq-60" value="" style="shape=tableRow;horizontal=0;startSize=0;swimlaneHead=0;swimlaneBody=0;fillColor=none;collapsible=0;dropTarget=0;points=[[0,0.5],[1,0.5]];portConstraint=eastwest;top=0;left=0;right=0;bottom=0;rounded=1;" vertex="1" parent="fFWgREcMKCbxpo3257Eq-53">
          <mxGeometry y="30" width="180" height="30" as="geometry" />
        </mxCell>
        <mxCell id="fFWgREcMKCbxpo3257Eq-61" value="&lt;b&gt;PK&lt;/b&gt;" style="shape=partialRectangle;connectable=0;fillColor=none;top=0;left=0;bottom=0;right=0;editable=1;overflow=hidden;whiteSpace=wrap;html=1;rounded=1;" vertex="1" parent="fFWgREcMKCbxpo3257Eq-60">
          <mxGeometry width="30" height="30" as="geometry">
            <mxRectangle width="30" height="30" as="alternateBounds" />
          </mxGeometry>
        </mxCell>
        <mxCell id="fFWgREcMKCbxpo3257Eq-62" value="PersonID" style="shape=partialRectangle;connectable=0;fillColor=none;top=0;left=0;bottom=0;right=0;align=left;spacingLeft=6;overflow=hidden;whiteSpace=wrap;html=1;rounded=1;" vertex="1" parent="fFWgREcMKCbxpo3257Eq-60">
          <mxGeometry x="30" width="150" height="30" as="geometry">
            <mxRectangle width="150" height="30" as="alternateBounds" />
          </mxGeometry>
        </mxCell>
        <mxCell id="fFWgREcMKCbxpo3257Eq-63" value="&lt;font face=&quot;Comic Sans MS&quot; style=&quot;font-size: 15px; font-weight: normal;&quot;&gt;Doctor&lt;/font&gt;" style="shape=table;startSize=30;container=1;collapsible=1;childLayout=tableLayout;fixedRows=1;rowLines=1;fontStyle=1;align=center;resizeLast=1;html=1;rounded=1;arcSize=15;fillColor=#e1d5e7;strokeColor=#9673a6;resizeLastRow=0;absoluteArcSize=0;" vertex="1" parent="1">
          <mxGeometry x="-721" y="-1574" width="180" height="60" as="geometry" />
        </mxCell>
        <mxCell id="fFWgREcMKCbxpo3257Eq-70" value="" style="shape=tableRow;horizontal=0;startSize=0;swimlaneHead=0;swimlaneBody=0;fillColor=none;collapsible=0;dropTarget=0;points=[[0,0.5],[1,0.5]];portConstraint=eastwest;top=0;left=0;right=0;bottom=0;rounded=1;" vertex="1" parent="fFWgREcMKCbxpo3257Eq-63">
          <mxGeometry y="30" width="180" height="30" as="geometry" />
        </mxCell>
        <mxCell id="fFWgREcMKCbxpo3257Eq-71" value="&lt;b&gt;PK&lt;/b&gt;" style="shape=partialRectangle;connectable=0;fillColor=none;top=0;left=0;bottom=0;right=0;editable=1;overflow=hidden;whiteSpace=wrap;html=1;rounded=1;" vertex="1" parent="fFWgREcMKCbxpo3257Eq-70">
          <mxGeometry width="30" height="30" as="geometry">
            <mxRectangle width="30" height="30" as="alternateBounds" />
          </mxGeometry>
        </mxCell>
        <mxCell id="fFWgREcMKCbxpo3257Eq-72" value="DoctorID" style="shape=partialRectangle;connectable=0;fillColor=none;top=0;left=0;bottom=0;right=0;align=left;spacingLeft=6;overflow=hidden;whiteSpace=wrap;html=1;rounded=1;" vertex="1" parent="fFWgREcMKCbxpo3257Eq-70">
          <mxGeometry x="30" width="150" height="30" as="geometry">
            <mxRectangle width="150" height="30" as="alternateBounds" />
          </mxGeometry>
        </mxCell>
        <mxCell id="fFWgREcMKCbxpo3257Eq-76" style="edgeStyle=orthogonalEdgeStyle;rounded=1;orthogonalLoop=1;jettySize=auto;html=1;entryX=0;entryY=0.5;entryDx=0;entryDy=0;fillColor=#a20025;strokeColor=#6F0000;strokeWidth=2;endArrow=ERzeroToOne;endFill=0;startArrow=ERmandOne;startFill=0;" edge="1" parent="1" source="fFWgREcMKCbxpo3257Eq-3" target="fFWgREcMKCbxpo3257Eq-70">
          <mxGeometry relative="1" as="geometry" />
        </mxCell>
        <mxCell id="fFWgREcMKCbxpo3257Eq-77" style="edgeStyle=orthogonalEdgeStyle;rounded=1;orthogonalLoop=1;jettySize=auto;html=1;entryX=1;entryY=0.5;entryDx=0;entryDy=0;fillColor=#a20025;strokeColor=#6F0000;strokeWidth=2;endArrow=ERzeroToOne;endFill=0;startArrow=ERmandOne;startFill=0;" edge="1" parent="1" source="fFWgREcMKCbxpo3257Eq-3" target="fFWgREcMKCbxpo3257Eq-60">
          <mxGeometry relative="1" as="geometry" />
        </mxCell>
        <mxCell id="fFWgREcMKCbxpo3257Eq-78" value="&lt;span style=&quot;font-family: &amp;quot;Comic Sans MS&amp;quot;; font-size: 15px; font-weight: 400; text-wrap-mode: wrap;&quot;&gt;Appointment&lt;/span&gt;" style="shape=table;startSize=30;container=1;collapsible=1;childLayout=tableLayout;fixedRows=1;rowLines=1;fontStyle=1;align=center;resizeLast=1;html=1;rounded=1;arcSize=15;fillColor=#e1d5e7;strokeColor=#9673a6;resizeLastRow=0;absoluteArcSize=0;" vertex="1" parent="1">
          <mxGeometry x="-951" y="-1419" width="180" height="240" as="geometry" />
        </mxCell>
        <mxCell id="fFWgREcMKCbxpo3257Eq-79" value="" style="shape=tableRow;horizontal=0;startSize=0;swimlaneHead=0;swimlaneBody=0;fillColor=none;collapsible=0;dropTarget=0;points=[[0,0.5],[1,0.5]];portConstraint=eastwest;top=0;left=0;right=0;bottom=1;rounded=1;" vertex="1" parent="fFWgREcMKCbxpo3257Eq-78">
          <mxGeometry y="30" width="180" height="30" as="geometry" />
        </mxCell>
        <mxCell id="fFWgREcMKCbxpo3257Eq-80" value="PK" style="shape=partialRectangle;connectable=0;fillColor=none;top=0;left=0;bottom=0;right=0;fontStyle=1;overflow=hidden;whiteSpace=wrap;html=1;rounded=1;" vertex="1" parent="fFWgREcMKCbxpo3257Eq-79">
          <mxGeometry width="30" height="30" as="geometry">
            <mxRectangle width="30" height="30" as="alternateBounds" />
          </mxGeometry>
        </mxCell>
        <mxCell id="fFWgREcMKCbxpo3257Eq-81" value="&lt;span style=&quot;font-family: &amp;quot;Comic Sans MS&amp;quot;; font-size: 15px; font-weight: 400; text-align: center;&quot;&gt;AppointmentID&lt;/span&gt;" style="shape=partialRectangle;connectable=0;fillColor=none;top=0;left=0;bottom=0;right=0;align=left;spacingLeft=6;fontStyle=5;overflow=hidden;whiteSpace=wrap;html=1;rounded=1;" vertex="1" parent="fFWgREcMKCbxpo3257Eq-79">
          <mxGeometry x="30" width="150" height="30" as="geometry">
            <mxRectangle width="150" height="30" as="alternateBounds" />
          </mxGeometry>
        </mxCell>
        <mxCell id="fFWgREcMKCbxpo3257Eq-82" value="" style="shape=tableRow;horizontal=0;startSize=0;swimlaneHead=0;swimlaneBody=0;fillColor=none;collapsible=0;dropTarget=0;points=[[0,0.5],[1,0.5]];portConstraint=eastwest;top=0;left=0;right=0;bottom=0;rounded=1;" vertex="1" parent="fFWgREcMKCbxpo3257Eq-78">
          <mxGeometry y="60" width="180" height="30" as="geometry" />
        </mxCell>
        <mxCell id="fFWgREcMKCbxpo3257Eq-83" value="" style="shape=partialRectangle;connectable=0;fillColor=none;top=0;left=0;bottom=0;right=0;editable=1;overflow=hidden;whiteSpace=wrap;html=1;rounded=1;" vertex="1" parent="fFWgREcMKCbxpo3257Eq-82">
          <mxGeometry width="30" height="30" as="geometry">
            <mxRectangle width="30" height="30" as="alternateBounds" />
          </mxGeometry>
        </mxCell>
        <mxCell id="fFWgREcMKCbxpo3257Eq-84" value="Status" style="shape=partialRectangle;connectable=0;fillColor=none;top=0;left=0;bottom=0;right=0;align=left;spacingLeft=6;overflow=hidden;whiteSpace=wrap;html=1;rounded=1;" vertex="1" parent="fFWgREcMKCbxpo3257Eq-82">
          <mxGeometry x="30" width="150" height="30" as="geometry">
            <mxRectangle width="150" height="30" as="alternateBounds" />
          </mxGeometry>
        </mxCell>
        <mxCell id="fFWgREcMKCbxpo3257Eq-85" value="" style="shape=tableRow;horizontal=0;startSize=0;swimlaneHead=0;swimlaneBody=0;fillColor=none;collapsible=0;dropTarget=0;points=[[0,0.5],[1,0.5]];portConstraint=eastwest;top=0;left=0;right=0;bottom=0;rounded=1;" vertex="1" parent="fFWgREcMKCbxpo3257Eq-78">
          <mxGeometry y="90" width="180" height="30" as="geometry" />
        </mxCell>
        <mxCell id="fFWgREcMKCbxpo3257Eq-86" value="" style="shape=partialRectangle;connectable=0;fillColor=none;top=0;left=0;bottom=0;right=0;editable=1;overflow=hidden;whiteSpace=wrap;html=1;rounded=1;" vertex="1" parent="fFWgREcMKCbxpo3257Eq-85">
          <mxGeometry width="30" height="30" as="geometry">
            <mxRectangle width="30" height="30" as="alternateBounds" />
          </mxGeometry>
        </mxCell>
        <mxCell id="fFWgREcMKCbxpo3257Eq-87" value="DateTime" style="shape=partialRectangle;connectable=0;fillColor=none;top=0;left=0;bottom=0;right=0;align=left;spacingLeft=6;overflow=hidden;whiteSpace=wrap;html=1;rounded=1;" vertex="1" parent="fFWgREcMKCbxpo3257Eq-85">
          <mxGeometry x="30" width="150" height="30" as="geometry">
            <mxRectangle width="150" height="30" as="alternateBounds" />
          </mxGeometry>
        </mxCell>
        <mxCell id="fFWgREcMKCbxpo3257Eq-88" value="" style="shape=tableRow;horizontal=0;startSize=0;swimlaneHead=0;swimlaneBody=0;fillColor=none;collapsible=0;dropTarget=0;points=[[0,0.5],[1,0.5]];portConstraint=eastwest;top=0;left=0;right=0;bottom=0;rounded=1;" vertex="1" parent="fFWgREcMKCbxpo3257Eq-78">
          <mxGeometry y="120" width="180" height="30" as="geometry" />
        </mxCell>
        <mxCell id="fFWgREcMKCbxpo3257Eq-89" value="&lt;b&gt;FK&lt;/b&gt;" style="shape=partialRectangle;connectable=0;fillColor=none;top=0;left=0;bottom=0;right=0;editable=1;overflow=hidden;whiteSpace=wrap;html=1;rounded=1;" vertex="1" parent="fFWgREcMKCbxpo3257Eq-88">
          <mxGeometry width="30" height="30" as="geometry">
            <mxRectangle width="30" height="30" as="alternateBounds" />
          </mxGeometry>
        </mxCell>
        <mxCell id="fFWgREcMKCbxpo3257Eq-90" value="PatientID" style="shape=partialRectangle;connectable=0;fillColor=none;top=0;left=0;bottom=0;right=0;align=left;spacingLeft=6;overflow=hidden;whiteSpace=wrap;html=1;rounded=1;" vertex="1" parent="fFWgREcMKCbxpo3257Eq-88">
          <mxGeometry x="30" width="150" height="30" as="geometry">
            <mxRectangle width="150" height="30" as="alternateBounds" />
          </mxGeometry>
        </mxCell>
        <mxCell id="fFWgREcMKCbxpo3257Eq-91" value="" style="shape=tableRow;horizontal=0;startSize=0;swimlaneHead=0;swimlaneBody=0;fillColor=none;collapsible=0;dropTarget=0;points=[[0,0.5],[1,0.5]];portConstraint=eastwest;top=0;left=0;right=0;bottom=0;rounded=1;" vertex="1" parent="fFWgREcMKCbxpo3257Eq-78">
          <mxGeometry y="150" width="180" height="30" as="geometry" />
        </mxCell>
        <mxCell id="fFWgREcMKCbxpo3257Eq-92" value="&lt;b&gt;FK&lt;/b&gt;" style="shape=partialRectangle;connectable=0;fillColor=none;top=0;left=0;bottom=0;right=0;editable=1;overflow=hidden;whiteSpace=wrap;html=1;rounded=1;" vertex="1" parent="fFWgREcMKCbxpo3257Eq-91">
          <mxGeometry width="30" height="30" as="geometry">
            <mxRectangle width="30" height="30" as="alternateBounds" />
          </mxGeometry>
        </mxCell>
        <mxCell id="fFWgREcMKCbxpo3257Eq-93" value="DoctorID" style="shape=partialRectangle;connectable=0;fillColor=none;top=0;left=0;bottom=0;right=0;align=left;spacingLeft=6;overflow=hidden;whiteSpace=wrap;html=1;rounded=1;" vertex="1" parent="fFWgREcMKCbxpo3257Eq-91">
          <mxGeometry x="30" width="150" height="30" as="geometry">
            <mxRectangle width="150" height="30" as="alternateBounds" />
          </mxGeometry>
        </mxCell>
        <mxCell id="fFWgREcMKCbxpo3257Eq-97" value="" style="shape=tableRow;horizontal=0;startSize=0;swimlaneHead=0;swimlaneBody=0;fillColor=none;collapsible=0;dropTarget=0;points=[[0,0.5],[1,0.5]];portConstraint=eastwest;top=0;left=0;right=0;bottom=0;rounded=1;" vertex="1" parent="fFWgREcMKCbxpo3257Eq-78">
          <mxGeometry y="180" width="180" height="30" as="geometry" />
        </mxCell>
        <mxCell id="fFWgREcMKCbxpo3257Eq-98" value="&lt;b&gt;FK&lt;/b&gt;" style="shape=partialRectangle;connectable=0;fillColor=none;top=0;left=0;bottom=0;right=0;editable=1;overflow=hidden;whiteSpace=wrap;html=1;rounded=1;" vertex="1" parent="fFWgREcMKCbxpo3257Eq-97">
          <mxGeometry width="30" height="30" as="geometry">
            <mxRectangle width="30" height="30" as="alternateBounds" />
          </mxGeometry>
        </mxCell>
        <mxCell id="fFWgREcMKCbxpo3257Eq-99" value="PaymentID" style="shape=partialRectangle;connectable=0;fillColor=none;top=0;left=0;bottom=0;right=0;align=left;spacingLeft=6;overflow=hidden;whiteSpace=wrap;html=1;rounded=1;" vertex="1" parent="fFWgREcMKCbxpo3257Eq-97">
          <mxGeometry x="30" width="150" height="30" as="geometry">
            <mxRectangle width="150" height="30" as="alternateBounds" />
          </mxGeometry>
        </mxCell>
        <mxCell id="fFWgREcMKCbxpo3257Eq-139" value="" style="shape=tableRow;horizontal=0;startSize=0;swimlaneHead=0;swimlaneBody=0;fillColor=none;collapsible=0;dropTarget=0;points=[[0,0.5],[1,0.5]];portConstraint=eastwest;top=0;left=0;right=0;bottom=0;rounded=1;" vertex="1" parent="fFWgREcMKCbxpo3257Eq-78">
          <mxGeometry y="210" width="180" height="30" as="geometry" />
        </mxCell>
        <mxCell id="fFWgREcMKCbxpo3257Eq-140" value="&lt;b&gt;FK&lt;/b&gt;" style="shape=partialRectangle;connectable=0;fillColor=none;top=0;left=0;bottom=0;right=0;editable=1;overflow=hidden;whiteSpace=wrap;html=1;rounded=1;" vertex="1" parent="fFWgREcMKCbxpo3257Eq-139">
          <mxGeometry width="30" height="30" as="geometry">
            <mxRectangle width="30" height="30" as="alternateBounds" />
          </mxGeometry>
        </mxCell>
        <mxCell id="fFWgREcMKCbxpo3257Eq-141" value="MRID" style="shape=partialRectangle;connectable=0;fillColor=none;top=0;left=0;bottom=0;right=0;align=left;spacingLeft=6;overflow=hidden;whiteSpace=wrap;html=1;rounded=1;" vertex="1" parent="fFWgREcMKCbxpo3257Eq-139">
          <mxGeometry x="30" width="150" height="30" as="geometry">
            <mxRectangle width="150" height="30" as="alternateBounds" />
          </mxGeometry>
        </mxCell>
        <mxCell id="fFWgREcMKCbxpo3257Eq-100" style="edgeStyle=orthogonalEdgeStyle;rounded=1;orthogonalLoop=1;jettySize=auto;html=1;entryX=0;entryY=0.5;entryDx=0;entryDy=0;exitX=0;exitY=0.5;exitDx=0;exitDy=0;fillColor=#a20025;strokeColor=#6F0000;strokeWidth=2;startArrow=ERmandOne;startFill=0;endArrow=ERzeroToMany;endFill=0;" edge="1" parent="1" source="fFWgREcMKCbxpo3257Eq-60" target="fFWgREcMKCbxpo3257Eq-88">
          <mxGeometry relative="1" as="geometry" />
        </mxCell>
        <mxCell id="fFWgREcMKCbxpo3257Eq-101" style="edgeStyle=orthogonalEdgeStyle;rounded=1;orthogonalLoop=1;jettySize=auto;html=1;entryX=1;entryY=0.5;entryDx=0;entryDy=0;exitX=1;exitY=0.5;exitDx=0;exitDy=0;fillColor=#a20025;strokeColor=#6F0000;strokeWidth=2;startArrow=ERmandOne;startFill=0;endArrow=ERzeroToMany;endFill=0;" edge="1" parent="1" source="fFWgREcMKCbxpo3257Eq-70" target="fFWgREcMKCbxpo3257Eq-91">
          <mxGeometry relative="1" as="geometry" />
        </mxCell>
        <mxCell id="fFWgREcMKCbxpo3257Eq-102" value="&lt;span style=&quot;font-family: &amp;quot;Comic Sans MS&amp;quot;; font-size: 15px; font-weight: 400; text-wrap-mode: wrap;&quot;&gt;Payment&lt;/span&gt;" style="shape=table;startSize=30;container=1;collapsible=1;childLayout=tableLayout;fixedRows=1;rowLines=1;fontStyle=1;align=center;resizeLast=1;html=1;rounded=1;arcSize=15;fillColor=#e1d5e7;strokeColor=#9673a6;resizeLastRow=0;absoluteArcSize=0;" vertex="1" parent="1">
          <mxGeometry x="-621" y="-1209" width="180" height="150" as="geometry" />
        </mxCell>
        <mxCell id="fFWgREcMKCbxpo3257Eq-103" value="" style="shape=tableRow;horizontal=0;startSize=0;swimlaneHead=0;swimlaneBody=0;fillColor=none;collapsible=0;dropTarget=0;points=[[0,0.5],[1,0.5]];portConstraint=eastwest;top=0;left=0;right=0;bottom=1;rounded=1;" vertex="1" parent="fFWgREcMKCbxpo3257Eq-102">
          <mxGeometry y="30" width="180" height="30" as="geometry" />
        </mxCell>
        <mxCell id="fFWgREcMKCbxpo3257Eq-104" value="PK" style="shape=partialRectangle;connectable=0;fillColor=none;top=0;left=0;bottom=0;right=0;fontStyle=1;overflow=hidden;whiteSpace=wrap;html=1;rounded=1;" vertex="1" parent="fFWgREcMKCbxpo3257Eq-103">
          <mxGeometry width="30" height="30" as="geometry">
            <mxRectangle width="30" height="30" as="alternateBounds" />
          </mxGeometry>
        </mxCell>
        <mxCell id="fFWgREcMKCbxpo3257Eq-105" value="&lt;span style=&quot;font-family: &amp;quot;Comic Sans MS&amp;quot;; font-size: 15px; font-weight: 400; text-align: center;&quot;&gt;PaymentID&lt;/span&gt;" style="shape=partialRectangle;connectable=0;fillColor=none;top=0;left=0;bottom=0;right=0;align=left;spacingLeft=6;fontStyle=5;overflow=hidden;whiteSpace=wrap;html=1;rounded=1;" vertex="1" parent="fFWgREcMKCbxpo3257Eq-103">
          <mxGeometry x="30" width="150" height="30" as="geometry">
            <mxRectangle width="150" height="30" as="alternateBounds" />
          </mxGeometry>
        </mxCell>
        <mxCell id="fFWgREcMKCbxpo3257Eq-106" value="" style="shape=tableRow;horizontal=0;startSize=0;swimlaneHead=0;swimlaneBody=0;fillColor=none;collapsible=0;dropTarget=0;points=[[0,0.5],[1,0.5]];portConstraint=eastwest;top=0;left=0;right=0;bottom=0;rounded=1;" vertex="1" parent="fFWgREcMKCbxpo3257Eq-102">
          <mxGeometry y="60" width="180" height="30" as="geometry" />
        </mxCell>
        <mxCell id="fFWgREcMKCbxpo3257Eq-107" value="" style="shape=partialRectangle;connectable=0;fillColor=none;top=0;left=0;bottom=0;right=0;editable=1;overflow=hidden;whiteSpace=wrap;html=1;rounded=1;" vertex="1" parent="fFWgREcMKCbxpo3257Eq-106">
          <mxGeometry width="30" height="30" as="geometry">
            <mxRectangle width="30" height="30" as="alternateBounds" />
          </mxGeometry>
        </mxCell>
        <mxCell id="fFWgREcMKCbxpo3257Eq-108" value="Method" style="shape=partialRectangle;connectable=0;fillColor=none;top=0;left=0;bottom=0;right=0;align=left;spacingLeft=6;overflow=hidden;whiteSpace=wrap;html=1;rounded=1;" vertex="1" parent="fFWgREcMKCbxpo3257Eq-106">
          <mxGeometry x="30" width="150" height="30" as="geometry">
            <mxRectangle width="150" height="30" as="alternateBounds" />
          </mxGeometry>
        </mxCell>
        <mxCell id="fFWgREcMKCbxpo3257Eq-109" value="" style="shape=tableRow;horizontal=0;startSize=0;swimlaneHead=0;swimlaneBody=0;fillColor=none;collapsible=0;dropTarget=0;points=[[0,0.5],[1,0.5]];portConstraint=eastwest;top=0;left=0;right=0;bottom=0;rounded=1;" vertex="1" parent="fFWgREcMKCbxpo3257Eq-102">
          <mxGeometry y="90" width="180" height="30" as="geometry" />
        </mxCell>
        <mxCell id="fFWgREcMKCbxpo3257Eq-110" value="" style="shape=partialRectangle;connectable=0;fillColor=none;top=0;left=0;bottom=0;right=0;editable=1;overflow=hidden;whiteSpace=wrap;html=1;rounded=1;" vertex="1" parent="fFWgREcMKCbxpo3257Eq-109">
          <mxGeometry width="30" height="30" as="geometry">
            <mxRectangle width="30" height="30" as="alternateBounds" />
          </mxGeometry>
        </mxCell>
        <mxCell id="fFWgREcMKCbxpo3257Eq-111" value="Amount" style="shape=partialRectangle;connectable=0;fillColor=none;top=0;left=0;bottom=0;right=0;align=left;spacingLeft=6;overflow=hidden;whiteSpace=wrap;html=1;rounded=1;" vertex="1" parent="fFWgREcMKCbxpo3257Eq-109">
          <mxGeometry x="30" width="150" height="30" as="geometry">
            <mxRectangle width="150" height="30" as="alternateBounds" />
          </mxGeometry>
        </mxCell>
        <mxCell id="fFWgREcMKCbxpo3257Eq-112" value="" style="shape=tableRow;horizontal=0;startSize=0;swimlaneHead=0;swimlaneBody=0;fillColor=none;collapsible=0;dropTarget=0;points=[[0,0.5],[1,0.5]];portConstraint=eastwest;top=0;left=0;right=0;bottom=0;rounded=1;" vertex="1" parent="fFWgREcMKCbxpo3257Eq-102">
          <mxGeometry y="120" width="180" height="30" as="geometry" />
        </mxCell>
        <mxCell id="fFWgREcMKCbxpo3257Eq-113" value="" style="shape=partialRectangle;connectable=0;fillColor=none;top=0;left=0;bottom=0;right=0;editable=1;overflow=hidden;whiteSpace=wrap;html=1;rounded=1;" vertex="1" parent="fFWgREcMKCbxpo3257Eq-112">
          <mxGeometry width="30" height="30" as="geometry">
            <mxRectangle width="30" height="30" as="alternateBounds" />
          </mxGeometry>
        </mxCell>
        <mxCell id="fFWgREcMKCbxpo3257Eq-114" value="AdditionNotes" style="shape=partialRectangle;connectable=0;fillColor=none;top=0;left=0;bottom=0;right=0;align=left;spacingLeft=6;overflow=hidden;whiteSpace=wrap;html=1;rounded=1;" vertex="1" parent="fFWgREcMKCbxpo3257Eq-112">
          <mxGeometry x="30" width="150" height="30" as="geometry">
            <mxRectangle width="150" height="30" as="alternateBounds" />
          </mxGeometry>
        </mxCell>
        <mxCell id="fFWgREcMKCbxpo3257Eq-122" style="edgeStyle=orthogonalEdgeStyle;rounded=1;orthogonalLoop=1;jettySize=auto;html=1;exitX=0;exitY=0.5;exitDx=0;exitDy=0;entryX=1;entryY=0.5;entryDx=0;entryDy=0;fillColor=#a20025;strokeColor=#6F0000;strokeWidth=2;endArrow=ERmandOne;endFill=0;startArrow=ERmandOne;startFill=0;" edge="1" parent="1" source="fFWgREcMKCbxpo3257Eq-103" target="fFWgREcMKCbxpo3257Eq-97">
          <mxGeometry relative="1" as="geometry" />
        </mxCell>
        <mxCell id="fFWgREcMKCbxpo3257Eq-123" value="&lt;span style=&quot;font-family: &amp;quot;Comic Sans MS&amp;quot;; font-size: 15px; font-weight: 400; text-wrap-mode: wrap;&quot;&gt;MedicalRecord&lt;/span&gt;" style="shape=table;startSize=30;container=1;collapsible=1;childLayout=tableLayout;fixedRows=1;rowLines=1;fontStyle=1;align=center;resizeLast=1;html=1;rounded=1;arcSize=15;fillColor=#e1d5e7;strokeColor=#9673a6;resizeLastRow=0;absoluteArcSize=0;" vertex="1" parent="1">
          <mxGeometry x="-941" y="-1039" width="180" height="210" as="geometry" />
        </mxCell>
        <mxCell id="fFWgREcMKCbxpo3257Eq-124" value="" style="shape=tableRow;horizontal=0;startSize=0;swimlaneHead=0;swimlaneBody=0;fillColor=none;collapsible=0;dropTarget=0;points=[[0,0.5],[1,0.5]];portConstraint=eastwest;top=0;left=0;right=0;bottom=1;rounded=1;" vertex="1" parent="fFWgREcMKCbxpo3257Eq-123">
          <mxGeometry y="30" width="180" height="30" as="geometry" />
        </mxCell>
        <mxCell id="fFWgREcMKCbxpo3257Eq-125" value="PK" style="shape=partialRectangle;connectable=0;fillColor=none;top=0;left=0;bottom=0;right=0;fontStyle=1;overflow=hidden;whiteSpace=wrap;html=1;rounded=1;" vertex="1" parent="fFWgREcMKCbxpo3257Eq-124">
          <mxGeometry width="30" height="30" as="geometry">
            <mxRectangle width="30" height="30" as="alternateBounds" />
          </mxGeometry>
        </mxCell>
        <mxCell id="fFWgREcMKCbxpo3257Eq-126" value="&lt;span style=&quot;font-family: &amp;quot;Comic Sans MS&amp;quot;; font-size: 15px; font-weight: 400; text-align: center;&quot;&gt;MRID&lt;/span&gt;" style="shape=partialRectangle;connectable=0;fillColor=none;top=0;left=0;bottom=0;right=0;align=left;spacingLeft=6;fontStyle=5;overflow=hidden;whiteSpace=wrap;html=1;rounded=1;" vertex="1" parent="fFWgREcMKCbxpo3257Eq-124">
          <mxGeometry x="30" width="150" height="30" as="geometry">
            <mxRectangle width="150" height="30" as="alternateBounds" />
          </mxGeometry>
        </mxCell>
        <mxCell id="fFWgREcMKCbxpo3257Eq-127" value="" style="shape=tableRow;horizontal=0;startSize=0;swimlaneHead=0;swimlaneBody=0;fillColor=none;collapsible=0;dropTarget=0;points=[[0,0.5],[1,0.5]];portConstraint=eastwest;top=0;left=0;right=0;bottom=0;rounded=1;" vertex="1" parent="fFWgREcMKCbxpo3257Eq-123">
          <mxGeometry y="60" width="180" height="30" as="geometry" />
        </mxCell>
        <mxCell id="fFWgREcMKCbxpo3257Eq-128" value="" style="shape=partialRectangle;connectable=0;fillColor=none;top=0;left=0;bottom=0;right=0;editable=1;overflow=hidden;whiteSpace=wrap;html=1;rounded=1;" vertex="1" parent="fFWgREcMKCbxpo3257Eq-127">
          <mxGeometry width="30" height="30" as="geometry">
            <mxRectangle width="30" height="30" as="alternateBounds" />
          </mxGeometry>
        </mxCell>
        <mxCell id="fFWgREcMKCbxpo3257Eq-129" value="Description" style="shape=partialRectangle;connectable=0;fillColor=none;top=0;left=0;bottom=0;right=0;align=left;spacingLeft=6;overflow=hidden;whiteSpace=wrap;html=1;rounded=1;" vertex="1" parent="fFWgREcMKCbxpo3257Eq-127">
          <mxGeometry x="30" width="150" height="30" as="geometry">
            <mxRectangle width="150" height="30" as="alternateBounds" />
          </mxGeometry>
        </mxCell>
        <mxCell id="fFWgREcMKCbxpo3257Eq-130" value="" style="shape=tableRow;horizontal=0;startSize=0;swimlaneHead=0;swimlaneBody=0;fillColor=none;collapsible=0;dropTarget=0;points=[[0,0.5],[1,0.5]];portConstraint=eastwest;top=0;left=0;right=0;bottom=0;rounded=1;" vertex="1" parent="fFWgREcMKCbxpo3257Eq-123">
          <mxGeometry y="90" width="180" height="30" as="geometry" />
        </mxCell>
        <mxCell id="fFWgREcMKCbxpo3257Eq-131" value="" style="shape=partialRectangle;connectable=0;fillColor=none;top=0;left=0;bottom=0;right=0;editable=1;overflow=hidden;whiteSpace=wrap;html=1;rounded=1;" vertex="1" parent="fFWgREcMKCbxpo3257Eq-130">
          <mxGeometry width="30" height="30" as="geometry">
            <mxRectangle width="30" height="30" as="alternateBounds" />
          </mxGeometry>
        </mxCell>
        <mxCell id="fFWgREcMKCbxpo3257Eq-132" value="Diagnosis" style="shape=partialRectangle;connectable=0;fillColor=none;top=0;left=0;bottom=0;right=0;align=left;spacingLeft=6;overflow=hidden;whiteSpace=wrap;html=1;rounded=1;" vertex="1" parent="fFWgREcMKCbxpo3257Eq-130">
          <mxGeometry x="30" width="150" height="30" as="geometry">
            <mxRectangle width="150" height="30" as="alternateBounds" />
          </mxGeometry>
        </mxCell>
        <mxCell id="fFWgREcMKCbxpo3257Eq-133" value="" style="shape=tableRow;horizontal=0;startSize=0;swimlaneHead=0;swimlaneBody=0;fillColor=none;collapsible=0;dropTarget=0;points=[[0,0.5],[1,0.5]];portConstraint=eastwest;top=0;left=0;right=0;bottom=0;rounded=1;" vertex="1" parent="fFWgREcMKCbxpo3257Eq-123">
          <mxGeometry y="120" width="180" height="30" as="geometry" />
        </mxCell>
        <mxCell id="fFWgREcMKCbxpo3257Eq-134" value="" style="shape=partialRectangle;connectable=0;fillColor=none;top=0;left=0;bottom=0;right=0;editable=1;overflow=hidden;whiteSpace=wrap;html=1;rounded=1;" vertex="1" parent="fFWgREcMKCbxpo3257Eq-133">
          <mxGeometry width="30" height="30" as="geometry">
            <mxRectangle width="30" height="30" as="alternateBounds" />
          </mxGeometry>
        </mxCell>
        <mxCell id="fFWgREcMKCbxpo3257Eq-135" value="Medications" style="shape=partialRectangle;connectable=0;fillColor=none;top=0;left=0;bottom=0;right=0;align=left;spacingLeft=6;overflow=hidden;whiteSpace=wrap;html=1;rounded=1;" vertex="1" parent="fFWgREcMKCbxpo3257Eq-133">
          <mxGeometry x="30" width="150" height="30" as="geometry">
            <mxRectangle width="150" height="30" as="alternateBounds" />
          </mxGeometry>
        </mxCell>
        <mxCell id="fFWgREcMKCbxpo3257Eq-136" value="" style="shape=tableRow;horizontal=0;startSize=0;swimlaneHead=0;swimlaneBody=0;fillColor=none;collapsible=0;dropTarget=0;points=[[0,0.5],[1,0.5]];portConstraint=eastwest;top=0;left=0;right=0;bottom=0;rounded=1;" vertex="1" parent="fFWgREcMKCbxpo3257Eq-123">
          <mxGeometry y="150" width="180" height="30" as="geometry" />
        </mxCell>
        <mxCell id="fFWgREcMKCbxpo3257Eq-137" value="" style="shape=partialRectangle;connectable=0;fillColor=none;top=0;left=0;bottom=0;right=0;editable=1;overflow=hidden;whiteSpace=wrap;html=1;rounded=1;" vertex="1" parent="fFWgREcMKCbxpo3257Eq-136">
          <mxGeometry width="30" height="30" as="geometry">
            <mxRectangle width="30" height="30" as="alternateBounds" />
          </mxGeometry>
        </mxCell>
        <mxCell id="fFWgREcMKCbxpo3257Eq-138" value="AdditionNotes" style="shape=partialRectangle;connectable=0;fillColor=none;top=0;left=0;bottom=0;right=0;align=left;spacingLeft=6;overflow=hidden;whiteSpace=wrap;html=1;rounded=1;" vertex="1" parent="fFWgREcMKCbxpo3257Eq-136">
          <mxGeometry x="30" width="150" height="30" as="geometry">
            <mxRectangle width="150" height="30" as="alternateBounds" />
          </mxGeometry>
        </mxCell>
        <mxCell id="fFWgREcMKCbxpo3257Eq-178" value="" style="shape=tableRow;horizontal=0;startSize=0;swimlaneHead=0;swimlaneBody=0;fillColor=none;collapsible=0;dropTarget=0;points=[[0,0.5],[1,0.5]];portConstraint=eastwest;top=0;left=0;right=0;bottom=0;rounded=1;" vertex="1" parent="fFWgREcMKCbxpo3257Eq-123">
          <mxGeometry y="180" width="180" height="30" as="geometry" />
        </mxCell>
        <mxCell id="fFWgREcMKCbxpo3257Eq-179" value="&lt;b&gt;FK&lt;/b&gt;" style="shape=partialRectangle;connectable=0;fillColor=none;top=0;left=0;bottom=0;right=0;editable=1;overflow=hidden;whiteSpace=wrap;html=1;rounded=1;" vertex="1" parent="fFWgREcMKCbxpo3257Eq-178">
          <mxGeometry width="30" height="30" as="geometry">
            <mxRectangle width="30" height="30" as="alternateBounds" />
          </mxGeometry>
        </mxCell>
        <mxCell id="fFWgREcMKCbxpo3257Eq-180" value="PresctiptionID" style="shape=partialRectangle;connectable=0;fillColor=none;top=0;left=0;bottom=0;right=0;align=left;spacingLeft=6;overflow=hidden;whiteSpace=wrap;html=1;rounded=1;" vertex="1" parent="fFWgREcMKCbxpo3257Eq-178">
          <mxGeometry x="30" width="150" height="30" as="geometry">
            <mxRectangle width="150" height="30" as="alternateBounds" />
          </mxGeometry>
        </mxCell>
        <mxCell id="fFWgREcMKCbxpo3257Eq-142" style="edgeStyle=orthogonalEdgeStyle;rounded=1;orthogonalLoop=1;jettySize=auto;html=1;entryX=0.007;entryY=0.715;entryDx=0;entryDy=0;entryPerimeter=0;exitX=0;exitY=0.5;exitDx=0;exitDy=0;fillColor=#a20025;strokeColor=#6F0000;strokeWidth=2;endArrow=ERmandOne;endFill=0;startArrow=ERmandOne;startFill=0;" edge="1" parent="1" source="fFWgREcMKCbxpo3257Eq-139" target="fFWgREcMKCbxpo3257Eq-124">
          <mxGeometry relative="1" as="geometry" />
        </mxCell>
        <mxCell id="fFWgREcMKCbxpo3257Eq-144" value="&lt;span style=&quot;font-family: &amp;quot;Comic Sans MS&amp;quot;; font-size: 15px; font-weight: 400; text-wrap-mode: wrap;&quot;&gt;Prescription&lt;/span&gt;" style="shape=table;startSize=30;container=1;collapsible=1;childLayout=tableLayout;fixedRows=1;rowLines=1;fontStyle=1;align=center;resizeLast=1;html=1;rounded=1;arcSize=15;fillColor=#e1d5e7;strokeColor=#9673a6;resizeLastRow=0;absoluteArcSize=0;" vertex="1" parent="1">
          <mxGeometry x="-941" y="-729" width="180" height="210" as="geometry" />
        </mxCell>
        <mxCell id="fFWgREcMKCbxpo3257Eq-145" value="" style="shape=tableRow;horizontal=0;startSize=0;swimlaneHead=0;swimlaneBody=0;fillColor=none;collapsible=0;dropTarget=0;points=[[0,0.5],[1,0.5]];portConstraint=eastwest;top=0;left=0;right=0;bottom=1;rounded=1;" vertex="1" parent="fFWgREcMKCbxpo3257Eq-144">
          <mxGeometry y="30" width="180" height="30" as="geometry" />
        </mxCell>
        <mxCell id="fFWgREcMKCbxpo3257Eq-146" value="PK" style="shape=partialRectangle;connectable=0;fillColor=none;top=0;left=0;bottom=0;right=0;fontStyle=1;overflow=hidden;whiteSpace=wrap;html=1;rounded=1;" vertex="1" parent="fFWgREcMKCbxpo3257Eq-145">
          <mxGeometry width="30" height="30" as="geometry">
            <mxRectangle width="30" height="30" as="alternateBounds" />
          </mxGeometry>
        </mxCell>
        <mxCell id="fFWgREcMKCbxpo3257Eq-147" value="&lt;span style=&quot;font-family: &amp;quot;Comic Sans MS&amp;quot;; font-size: 15px; font-weight: 400; text-align: center;&quot;&gt;ID&lt;/span&gt;" style="shape=partialRectangle;connectable=0;fillColor=none;top=0;left=0;bottom=0;right=0;align=left;spacingLeft=6;fontStyle=5;overflow=hidden;whiteSpace=wrap;html=1;rounded=1;" vertex="1" parent="fFWgREcMKCbxpo3257Eq-145">
          <mxGeometry x="30" width="150" height="30" as="geometry">
            <mxRectangle width="150" height="30" as="alternateBounds" />
          </mxGeometry>
        </mxCell>
        <mxCell id="fFWgREcMKCbxpo3257Eq-151" value="" style="shape=tableRow;horizontal=0;startSize=0;swimlaneHead=0;swimlaneBody=0;fillColor=none;collapsible=0;dropTarget=0;points=[[0,0.5],[1,0.5]];portConstraint=eastwest;top=0;left=0;right=0;bottom=0;rounded=1;" vertex="1" parent="fFWgREcMKCbxpo3257Eq-144">
          <mxGeometry y="60" width="180" height="30" as="geometry" />
        </mxCell>
        <mxCell id="fFWgREcMKCbxpo3257Eq-152" value="" style="shape=partialRectangle;connectable=0;fillColor=none;top=0;left=0;bottom=0;right=0;editable=1;overflow=hidden;whiteSpace=wrap;html=1;rounded=1;" vertex="1" parent="fFWgREcMKCbxpo3257Eq-151">
          <mxGeometry width="30" height="30" as="geometry">
            <mxRectangle width="30" height="30" as="alternateBounds" />
          </mxGeometry>
        </mxCell>
        <mxCell id="fFWgREcMKCbxpo3257Eq-153" value="Dosage" style="shape=partialRectangle;connectable=0;fillColor=none;top=0;left=0;bottom=0;right=0;align=left;spacingLeft=6;overflow=hidden;whiteSpace=wrap;html=1;rounded=1;" vertex="1" parent="fFWgREcMKCbxpo3257Eq-151">
          <mxGeometry x="30" width="150" height="30" as="geometry">
            <mxRectangle width="150" height="30" as="alternateBounds" />
          </mxGeometry>
        </mxCell>
        <mxCell id="fFWgREcMKCbxpo3257Eq-154" value="" style="shape=tableRow;horizontal=0;startSize=0;swimlaneHead=0;swimlaneBody=0;fillColor=none;collapsible=0;dropTarget=0;points=[[0,0.5],[1,0.5]];portConstraint=eastwest;top=0;left=0;right=0;bottom=0;rounded=1;" vertex="1" parent="fFWgREcMKCbxpo3257Eq-144">
          <mxGeometry y="90" width="180" height="30" as="geometry" />
        </mxCell>
        <mxCell id="fFWgREcMKCbxpo3257Eq-155" value="" style="shape=partialRectangle;connectable=0;fillColor=none;top=0;left=0;bottom=0;right=0;editable=1;overflow=hidden;whiteSpace=wrap;html=1;rounded=1;" vertex="1" parent="fFWgREcMKCbxpo3257Eq-154">
          <mxGeometry width="30" height="30" as="geometry">
            <mxRectangle width="30" height="30" as="alternateBounds" />
          </mxGeometry>
        </mxCell>
        <mxCell id="fFWgREcMKCbxpo3257Eq-156" value="Frequency" style="shape=partialRectangle;connectable=0;fillColor=none;top=0;left=0;bottom=0;right=0;align=left;spacingLeft=6;overflow=hidden;whiteSpace=wrap;html=1;rounded=1;" vertex="1" parent="fFWgREcMKCbxpo3257Eq-154">
          <mxGeometry x="30" width="150" height="30" as="geometry">
            <mxRectangle width="150" height="30" as="alternateBounds" />
          </mxGeometry>
        </mxCell>
        <mxCell id="fFWgREcMKCbxpo3257Eq-157" value="" style="shape=tableRow;horizontal=0;startSize=0;swimlaneHead=0;swimlaneBody=0;fillColor=none;collapsible=0;dropTarget=0;points=[[0,0.5],[1,0.5]];portConstraint=eastwest;top=0;left=0;right=0;bottom=0;rounded=1;" vertex="1" parent="fFWgREcMKCbxpo3257Eq-144">
          <mxGeometry y="120" width="180" height="30" as="geometry" />
        </mxCell>
        <mxCell id="fFWgREcMKCbxpo3257Eq-158" value="" style="shape=partialRectangle;connectable=0;fillColor=none;top=0;left=0;bottom=0;right=0;editable=1;overflow=hidden;whiteSpace=wrap;html=1;rounded=1;" vertex="1" parent="fFWgREcMKCbxpo3257Eq-157">
          <mxGeometry width="30" height="30" as="geometry">
            <mxRectangle width="30" height="30" as="alternateBounds" />
          </mxGeometry>
        </mxCell>
        <mxCell id="fFWgREcMKCbxpo3257Eq-159" value="StartDate" style="shape=partialRectangle;connectable=0;fillColor=none;top=0;left=0;bottom=0;right=0;align=left;spacingLeft=6;overflow=hidden;whiteSpace=wrap;html=1;rounded=1;" vertex="1" parent="fFWgREcMKCbxpo3257Eq-157">
          <mxGeometry x="30" width="150" height="30" as="geometry">
            <mxRectangle width="150" height="30" as="alternateBounds" />
          </mxGeometry>
        </mxCell>
        <mxCell id="fFWgREcMKCbxpo3257Eq-160" value="" style="shape=tableRow;horizontal=0;startSize=0;swimlaneHead=0;swimlaneBody=0;fillColor=none;collapsible=0;dropTarget=0;points=[[0,0.5],[1,0.5]];portConstraint=eastwest;top=0;left=0;right=0;bottom=0;rounded=1;" vertex="1" parent="fFWgREcMKCbxpo3257Eq-144">
          <mxGeometry y="150" width="180" height="30" as="geometry" />
        </mxCell>
        <mxCell id="fFWgREcMKCbxpo3257Eq-161" value="" style="shape=partialRectangle;connectable=0;fillColor=none;top=0;left=0;bottom=0;right=0;editable=1;overflow=hidden;whiteSpace=wrap;html=1;rounded=1;" vertex="1" parent="fFWgREcMKCbxpo3257Eq-160">
          <mxGeometry width="30" height="30" as="geometry">
            <mxRectangle width="30" height="30" as="alternateBounds" />
          </mxGeometry>
        </mxCell>
        <mxCell id="fFWgREcMKCbxpo3257Eq-162" value="EndDate" style="shape=partialRectangle;connectable=0;fillColor=none;top=0;left=0;bottom=0;right=0;align=left;spacingLeft=6;overflow=hidden;whiteSpace=wrap;html=1;rounded=1;" vertex="1" parent="fFWgREcMKCbxpo3257Eq-160">
          <mxGeometry x="30" width="150" height="30" as="geometry">
            <mxRectangle width="150" height="30" as="alternateBounds" />
          </mxGeometry>
        </mxCell>
        <mxCell id="fFWgREcMKCbxpo3257Eq-163" value="" style="shape=tableRow;horizontal=0;startSize=0;swimlaneHead=0;swimlaneBody=0;fillColor=none;collapsible=0;dropTarget=0;points=[[0,0.5],[1,0.5]];portConstraint=eastwest;top=0;left=0;right=0;bottom=0;rounded=1;" vertex="1" parent="fFWgREcMKCbxpo3257Eq-144">
          <mxGeometry y="180" width="180" height="30" as="geometry" />
        </mxCell>
        <mxCell id="fFWgREcMKCbxpo3257Eq-164" value="" style="shape=partialRectangle;connectable=0;fillColor=none;top=0;left=0;bottom=0;right=0;editable=1;overflow=hidden;whiteSpace=wrap;html=1;rounded=1;" vertex="1" parent="fFWgREcMKCbxpo3257Eq-163">
          <mxGeometry width="30" height="30" as="geometry">
            <mxRectangle width="30" height="30" as="alternateBounds" />
          </mxGeometry>
        </mxCell>
        <mxCell id="fFWgREcMKCbxpo3257Eq-165" value="Instructions" style="shape=partialRectangle;connectable=0;fillColor=none;top=0;left=0;bottom=0;right=0;align=left;spacingLeft=6;overflow=hidden;whiteSpace=wrap;html=1;rounded=1;" vertex="1" parent="fFWgREcMKCbxpo3257Eq-163">
          <mxGeometry x="30" width="150" height="30" as="geometry">
            <mxRectangle width="150" height="30" as="alternateBounds" />
          </mxGeometry>
        </mxCell>
        <mxCell id="fFWgREcMKCbxpo3257Eq-167" value="&lt;font face=&quot;Comic Sans MS&quot; style=&quot;font-size: 15px; font-weight: normal;&quot;&gt;Medication&lt;/font&gt;" style="shape=table;startSize=30;container=1;collapsible=1;childLayout=tableLayout;fixedRows=1;rowLines=1;fontStyle=1;align=center;resizeLast=1;html=1;rounded=1;arcSize=15;fillColor=#e1d5e7;strokeColor=#9673a6;resizeLastRow=0;absoluteArcSize=0;" vertex="1" parent="1">
          <mxGeometry x="-1281" y="-729" width="180" height="120" as="geometry" />
        </mxCell>
        <mxCell id="fFWgREcMKCbxpo3257Eq-168" value="" style="shape=tableRow;horizontal=0;startSize=0;swimlaneHead=0;swimlaneBody=0;fillColor=none;collapsible=0;dropTarget=0;points=[[0,0.5],[1,0.5]];portConstraint=eastwest;top=0;left=0;right=0;bottom=1;rounded=1;" vertex="1" parent="fFWgREcMKCbxpo3257Eq-167">
          <mxGeometry y="30" width="180" height="30" as="geometry" />
        </mxCell>
        <mxCell id="fFWgREcMKCbxpo3257Eq-169" value="PK" style="shape=partialRectangle;connectable=0;fillColor=none;top=0;left=0;bottom=0;right=0;fontStyle=1;overflow=hidden;whiteSpace=wrap;html=1;rounded=1;" vertex="1" parent="fFWgREcMKCbxpo3257Eq-168">
          <mxGeometry width="30" height="30" as="geometry">
            <mxRectangle width="30" height="30" as="alternateBounds" />
          </mxGeometry>
        </mxCell>
        <mxCell id="fFWgREcMKCbxpo3257Eq-170" value="ID" style="shape=partialRectangle;connectable=0;fillColor=none;top=0;left=0;bottom=0;right=0;align=left;spacingLeft=6;fontStyle=5;overflow=hidden;whiteSpace=wrap;html=1;rounded=1;" vertex="1" parent="fFWgREcMKCbxpo3257Eq-168">
          <mxGeometry x="30" width="150" height="30" as="geometry">
            <mxRectangle width="150" height="30" as="alternateBounds" />
          </mxGeometry>
        </mxCell>
        <mxCell id="fFWgREcMKCbxpo3257Eq-171" value="" style="shape=tableRow;horizontal=0;startSize=0;swimlaneHead=0;swimlaneBody=0;fillColor=none;collapsible=0;dropTarget=0;points=[[0,0.5],[1,0.5]];portConstraint=eastwest;top=0;left=0;right=0;bottom=0;rounded=1;" vertex="1" parent="fFWgREcMKCbxpo3257Eq-167">
          <mxGeometry y="60" width="180" height="30" as="geometry" />
        </mxCell>
        <mxCell id="fFWgREcMKCbxpo3257Eq-172" value="" style="shape=partialRectangle;connectable=0;fillColor=none;top=0;left=0;bottom=0;right=0;editable=1;overflow=hidden;whiteSpace=wrap;html=1;rounded=1;" vertex="1" parent="fFWgREcMKCbxpo3257Eq-171">
          <mxGeometry width="30" height="30" as="geometry">
            <mxRectangle width="30" height="30" as="alternateBounds" />
          </mxGeometry>
        </mxCell>
        <mxCell id="fFWgREcMKCbxpo3257Eq-173" value="Name" style="shape=partialRectangle;connectable=0;fillColor=none;top=0;left=0;bottom=0;right=0;align=left;spacingLeft=6;overflow=hidden;whiteSpace=wrap;html=1;rounded=1;" vertex="1" parent="fFWgREcMKCbxpo3257Eq-171">
          <mxGeometry x="30" width="150" height="30" as="geometry">
            <mxRectangle width="150" height="30" as="alternateBounds" />
          </mxGeometry>
        </mxCell>
        <mxCell id="fFWgREcMKCbxpo3257Eq-174" value="" style="shape=tableRow;horizontal=0;startSize=0;swimlaneHead=0;swimlaneBody=0;fillColor=none;collapsible=0;dropTarget=0;points=[[0,0.5],[1,0.5]];portConstraint=eastwest;top=0;left=0;right=0;bottom=0;rounded=1;" vertex="1" parent="fFWgREcMKCbxpo3257Eq-167">
          <mxGeometry y="90" width="180" height="30" as="geometry" />
        </mxCell>
        <mxCell id="fFWgREcMKCbxpo3257Eq-175" value="FK" style="shape=partialRectangle;connectable=0;fillColor=none;top=0;left=0;bottom=0;right=0;editable=1;overflow=hidden;whiteSpace=wrap;html=1;rounded=1;" vertex="1" parent="fFWgREcMKCbxpo3257Eq-174">
          <mxGeometry width="30" height="30" as="geometry">
            <mxRectangle width="30" height="30" as="alternateBounds" />
          </mxGeometry>
        </mxCell>
        <mxCell id="fFWgREcMKCbxpo3257Eq-176" value="PrescriptionID" style="shape=partialRectangle;connectable=0;fillColor=none;top=0;left=0;bottom=0;right=0;align=left;spacingLeft=6;overflow=hidden;whiteSpace=wrap;html=1;rounded=1;" vertex="1" parent="fFWgREcMKCbxpo3257Eq-174">
          <mxGeometry x="30" width="150" height="30" as="geometry">
            <mxRectangle width="150" height="30" as="alternateBounds" />
          </mxGeometry>
        </mxCell>
        <mxCell id="fFWgREcMKCbxpo3257Eq-177" style="edgeStyle=orthogonalEdgeStyle;rounded=1;orthogonalLoop=1;jettySize=auto;html=1;entryX=1;entryY=0.5;entryDx=0;entryDy=0;fillColor=#a20025;strokeColor=#6F0000;strokeWidth=2;endArrow=ERoneToMany;endFill=0;startArrow=ERmandOne;startFill=0;" edge="1" parent="1" source="fFWgREcMKCbxpo3257Eq-145" target="fFWgREcMKCbxpo3257Eq-174">
          <mxGeometry relative="1" as="geometry" />
        </mxCell>
        <mxCell id="fFWgREcMKCbxpo3257Eq-181" style="edgeStyle=orthogonalEdgeStyle;rounded=1;orthogonalLoop=1;jettySize=auto;html=1;entryX=1;entryY=0.5;entryDx=0;entryDy=0;exitX=1;exitY=0.5;exitDx=0;exitDy=0;fillColor=#a20025;strokeColor=#6F0000;strokeWidth=2;endArrow=ERmandOne;endFill=0;startArrow=ERzeroToOne;startFill=0;" edge="1" parent="1" source="fFWgREcMKCbxpo3257Eq-145" target="fFWgREcMKCbxpo3257Eq-178">
          <mxGeometry relative="1" as="geometry" />
        </mxCell>
        <mxCell id="fFWgREcMKCbxpo3257Eq-182" value="&lt;font style=&quot;font-size: 30px;&quot; face=&quot;Comic Sans MS&quot;&gt;Simple Clinic&lt;/font&gt;" style="text;html=1;align=center;verticalAlign=middle;whiteSpace=wrap;rounded=0;" vertex="1" parent="1">
          <mxGeometry x="-971" y="-2119" width="180" height="30" as="geometry" />
        </mxCell>
        <mxCell id="fFWgREcMKCbxpo3257Eq-183" value="&lt;font style=&quot;font-size: 30px;&quot; face=&quot;Comic Sans MS&quot;&gt;Entity Relationship Diagram&lt;/font&gt;" style="text;html=1;align=center;verticalAlign=middle;whiteSpace=wrap;rounded=0;" vertex="1" parent="1">
          <mxGeometry x="-2731" y="-169" width="400" height="30" as="geometry" />
        </mxCell>
        <mxCell id="fFWgREcMKCbxpo3257Eq-184" value="&lt;font style=&quot;font-size: 30px;&quot; face=&quot;Comic Sans MS&quot;&gt;Relation Schema&lt;/font&gt;" style="text;html=1;align=center;verticalAlign=middle;whiteSpace=wrap;rounded=0;" vertex="1" parent="1">
          <mxGeometry x="-1051" y="-469" width="400" height="30" as="geometry" />
        </mxCell>
        <mxCell id="fFWgREcMKCbxpo3257Eq-185" value="" style="endArrow=classic;html=1;rounded=1;fillColor=#a20025;strokeColor=#6F0000;strokeWidth=5;" edge="1" parent="1">
          <mxGeometry width="50" height="50" relative="1" as="geometry">
            <mxPoint x="-1581" y="-1169" as="sourcePoint" />
            <mxPoint x="-1481" y="-1169" as="targetPoint" />
          </mxGeometry>
        </mxCell>
      </root>
    </mxGraphModel>
  </diagram>
</mxfile>
